<?xml version="1.0" encoding="UTF-8" standalone="no"?>
<svg
   xmlns:dc="http://purl.org/dc/elements/1.1/"
   xmlns:cc="http://creativecommons.org/ns#"
   xmlns:rdf="http://www.w3.org/1999/02/22-rdf-syntax-ns#"
   xmlns:svg="http://www.w3.org/2000/svg"
   xmlns="http://www.w3.org/2000/svg"
   xmlns:sodipodi="http://sodipodi.sourceforge.net/DTD/sodipodi-0.dtd"
   xmlns:inkscape="http://www.inkscape.org/namespaces/inkscape"
   height="310.89999"
   width="178.8"
   version="1.1"
   id="svg322"
   sodipodi:docname="kikou08_2.svg"
   inkscape:version="0.92.2 5c3e80d, 2017-08-06">
  <metadata
     id="metadata328">
    <rdf:RDF>
      <cc:Work
         rdf:about="">
        <dc:format>image/svg+xml</dc:format>
        <dc:type
           rdf:resource="http://purl.org/dc/dcmitype/StillImage" />
        <dc:title></dc:title>
      </cc:Work>
    </rdf:RDF>
  </metadata>
  <defs
     id="defs326" />
  <sodipodi:namedview
     pagecolor="#ffffff"
     bordercolor="#666666"
     borderopacity="1"
     objecttolerance="10"
     gridtolerance="10"
     guidetolerance="10"
     inkscape:pageopacity="0"
     inkscape:pageshadow="2"
     inkscape:window-width="793"
     inkscape:window-height="480"
     id="namedview324"
     showgrid="false"
     fit-margin-top="0"
     fit-margin-left="0"
     fit-margin-right="0"
     fit-margin-bottom="0"
     inkscape:zoom="0.75665279"
     inkscape:cx="-129.32648"
     inkscape:cy="155.95"
     inkscape:window-x="0"
     inkscape:window-y="0"
     inkscape:window-maximized="0"
     inkscape:current-layer="svg322" />
  <path
     d="m 0,284.79999 v 26 h 22.4 v -13 z m 0,0"
     id="path2"
     inkscape:connector-curvature="0"
     style="fill:#bf1927" />
  <path
     d="m 0,283.59999 v 2.4 l 21.3,12.4 v 12.4 h 2.1 v -13.5 z m 0,0"
     id="path4"
     inkscape:connector-curvature="0"
     style="fill:#e6be34" />
  <path
     d="m 0,288.39999 v 1.2 l 18.2,10.7 v 10.6 h 1 v -11.2 z m 1,18.9 c 0,0.5 0.3,0.8 0.6,1 0.3,0.1 0.6,0.1 0.9,-0.1 2.9,-3.4 5.6,-7.6 2,-9.8 -0.6,-0.4 -1.2,-1 -1.4,-1.7 -0.4,-1.4 -1.3,-2.3 -3,-2.3 v 7 c 0.5,0 1,2.7 1,6 m 13.1,0.3 a 3,3 0 0 1 -1.7,-1.4 c -2.3,-3.5 -6.5,-0.8 -9.8,2.1 -0.3,0.2 -0.3,0.6 -0.1,0.9 0.2,0.3 0.5,0.5 0.8,0.5 3.4,0 6,0.5 6,1 h 7 c 0,-1.7 -0.8,-2.7 -2.2,-3 m -14.2,1.4 v 1.6 h 1.7 c 0,-1 -0.8,-1.6 -1.7,-1.6"
     id="path6"
     inkscape:connector-curvature="0"
     style="fill:#e6be34" />
  <path
     d="m 44.7,284.79999 -22.3,13 v 13 H 67 v -13 z m 0,0"
     id="path8"
     inkscape:connector-curvature="0"
     style="fill:#221815" />
  <path
     d="m 44.7,283.59999 -23.4,13.7 v 13.6 h 2.1 v -12.4 l 21.3,-12.4 21.3,12.4 v 12.4 h 2 v -13.6 z m 0,0"
     id="path10"
     inkscape:connector-curvature="0"
     style="fill:#e6be34" />
  <path
     d="m 44.7,288.39999 -19.3,11.2 v 11.2 h 1 v -10.5 l 18.3,-10.6 18.2,10.6 v 10.6 h 1 v -11.2 z m 0,0"
     id="path12"
     inkscape:connector-curvature="0"
     style="fill:#e6be34" />
  <path
     d="m 43.2,308.29999 c 0.3,-0.2 0.5,-0.5 0.5,-1 0,-3.2 0.4,-5.9 1,-5.9 0.6,0 1,2.7 1,6 0,0.4 0.2,0.7 0.6,0.9 0.3,0.1 0.6,0.1 0.8,-0.1 3,-3.4 5.7,-7.6 2.1,-9.8 -0.6,-0.4 -1.2,-1 -1.4,-1.7 -0.4,-1.4 -1.3,-2.3 -3.1,-2.3 -1.8,0 -2.7,1 -3,2.3 -0.3,0.7 -0.9,1.3 -1.5,1.7 -3.6,2.2 -0.8,6.4 2,9.8 0.3,0.2 0.7,0.2 1,0 m 15.7,-0.5 a 3,3 0 0 1 -1.7,-1.4 c -2.3,-3.5 -6.5,-0.8 -9.9,2.1 -0.2,0.2 -0.2,0.6 0,0.9 0.1,0.3 0.5,0.5 0.8,0.5 3.4,0 6,0.5 6,1 h 7 c 0,-1.7 -0.8,-2.7 -2.2,-3 m -17.7,2 c 0.4,0 0.8,-0.2 1,-0.5 0.1,-0.3 0,-0.7 -0.2,-1 -3.3,-2.8 -7.5,-5.5 -9.8,-2 a 3,3 0 0 1 -1.7,1.4 c -1.4,0.4 -2.3,1.4 -2.3,3.1 h 7 c 0,-0.5 2.7,-1 6,-1 m 3.5,-0.6 c -1,0 -1.7,0.7 -1.7,1.6 h 3.4 c 0,-1 -0.8,-1.6 -1.7,-1.6"
     id="path14"
     inkscape:connector-curvature="0"
     style="fill:#e6be34" />
  <path
     d="m 89.4,284.79999 -22.4,13 v 13 h 44.7 v -13 z m 0,0"
     id="path16"
     inkscape:connector-curvature="0"
     style="fill:#366f8a" />
  <path
     d="m 89.4,283.59999 -23.4,13.7 v 13.6 h 2 v -12.4 l 21.4,-12.4 21.3,12.4 v 12.4 h 2 v -13.6 z m 0,0"
     id="path18"
     inkscape:connector-curvature="0"
     style="fill:#e6be34" />
  <path
     d="m 89.4,288.39999 -19.3,11.2 v 11.2 h 1 v -10.5 l 18.3,-10.6 18.2,10.6 v 10.6 h 1 v -11.2 z m 0,0"
     id="path20"
     inkscape:connector-curvature="0"
     style="fill:#e6be34" />
  <path
     d="m 87.8,308.29999 c 0.3,-0.2 0.6,-0.5 0.6,-1 0,-3.2 0.4,-5.9 1,-5.9 0.6,0 1,2.7 1,6 0,0.4 0.2,0.7 0.6,0.9 0.2,0.1 0.6,0.1 0.8,-0.1 3,-3.4 5.7,-7.6 2.1,-9.8 -0.6,-0.4 -1.2,-1 -1.4,-1.7 -0.4,-1.4 -1.4,-2.3 -3.1,-2.3 -1.8,0 -2.7,1 -3,2.3 -0.3,0.7 -0.9,1.3 -1.5,1.7 -3.6,2.2 -0.9,6.4 2,9.8 0.3,0.2 0.7,0.2 1,0 m 15.7,-0.5 a 3,3 0 0 1 -1.7,-1.4 c -2.3,-3.5 -6.5,-0.8 -9.9,2.1 -0.2,0.2 -0.2,0.6 0,0.9 0.1,0.3 0.5,0.5 0.8,0.5 3.4,0 6,0.5 6,1 h 7 c 0,-1.7 -0.8,-2.7 -2.2,-3 m -17.6,2 c 0.3,0 0.6,-0.2 0.8,-0.5 a 1,1 0 0 0 0,-1 c -3.4,-2.8 -7.6,-5.5 -9.9,-2 a 3,3 0 0 1 -1.7,1.4 c -1.4,0.4 -2.3,1.4 -2.3,3.1 h 7 c 0,-0.5 2.7,-1 6,-1 m 3.5,-0.6 c -1,0 -1.7,0.7 -1.7,1.6 h 3.4 c 0,-1 -0.8,-1.6 -1.7,-1.6"
     id="path22"
     inkscape:connector-curvature="0"
     style="fill:#e6be34" />
  <path
     d="m 134.1,284.79999 -22.4,13 v 13 h 44.7 v -13 z m 0,0"
     id="path24"
     inkscape:connector-curvature="0"
     style="fill:#f9d6d6" />
  <path
     d="m 134.1,283.59999 -23.4,13.7 v 13.6 h 2 v -12.4 l 21.4,-12.4 21.3,12.4 v 12.4 h 2 v -13.6 z m 0,0"
     id="path26"
     inkscape:connector-curvature="0"
     style="fill:#e6be34" />
  <path
     d="m 134.1,288.39999 -19.3,11.2 v 11.2 h 1 v -10.5 l 18.3,-10.6 18.1,10.6 v 10.6 h 1 v -11.2 z m 0,0"
     id="path28"
     inkscape:connector-curvature="0"
     style="fill:#e6be34" />
  <path
     d="m 132.5,308.29999 c 0.3,-0.2 0.6,-0.5 0.6,-1 0,-3.2 0.4,-5.9 1,-5.9 0.5,0 1,2.7 1,6 0,0.4 0.2,0.7 0.5,0.9 0.3,0.1 0.7,0.1 1,-0.1 2.8,-3.4 5.6,-7.6 2,-9.8 -0.6,-0.4 -1.2,-1 -1.4,-1.7 -0.4,-1.4 -1.4,-2.3 -3.1,-2.3 -1.8,0 -2.7,1 -3.1,2.3 -0.2,0.7 -0.8,1.3 -1.4,1.7 -3.6,2.2 -0.9,6.4 2,9.8 0.3,0.2 0.6,0.2 1,0 m 15.7,-0.5 a 3,3 0 0 1 -1.7,-1.4 c -2.3,-3.5 -6.5,-0.8 -9.9,2.1 -0.2,0.2 -0.2,0.6 0,0.9 0.1,0.3 0.5,0.5 0.8,0.5 3.4,0 6,0.5 6,1 h 7 c 0,-1.7 -0.8,-2.7 -2.2,-3 m -17.7,2 c 0.4,0 0.7,-0.2 1,-0.5 0.1,-0.3 0,-0.7 -0.2,-1 -3.3,-2.8 -7.6,-5.5 -9.8,-2 a 3,3 0 0 1 -1.7,1.4 c -1.4,0.4 -2.3,1.4 -2.3,3.1 h 7 c 0,-0.5 2.7,-1 6,-1 m 3.5,-0.6 c -1,0 -1.7,0.7 -1.7,1.6 h 3.4 c 0,-1 -0.8,-1.6 -1.7,-1.6"
     id="path30"
     inkscape:connector-curvature="0"
     style="fill:#e6be34" />
  <path
     d="m 156.4,310.79999 h 22.4 v -26 l -22.4,13 z m 0,0"
     id="path32"
     inkscape:connector-curvature="0"
     style="fill:#bf1927" />
  <path
     d="m 155.4,310.79999 h 2 v -12.4 l 21.4,-12.4 v -2.4 l -23.4,13.7 z m 0,0"
     id="path34"
     inkscape:connector-curvature="0"
     style="fill:#e6be34" />
  <path
     d="m 159.5,310.79999 h 1 v -10.5 l 18.3,-10.6 v -1.2 l -19.3,11.2 z m 16.2,-14.1 c -0.2,0.7 -0.8,1.3 -1.4,1.7 -3.6,2.2 -0.9,6.4 2,9.8 0.3,0.2 0.6,0.2 1,0 0.2,-0.1 0.5,-0.4 0.5,-0.8 0,-3.3 0.4,-6 1,-6 v -7 c -1.8,0 -2.7,1 -3.1,2.3 m -0.4,13.1 c 0.4,0 0.7,-0.2 1,-0.5 0.1,-0.3 0,-0.7 -0.2,-1 -3.3,-2.8 -7.6,-5.5 -9.8,-2 a 3,3 0 0 1 -1.7,1.4 c -1.4,0.4 -2.3,1.4 -2.3,3.1 h 7 c 0,-0.5 2.7,-1 6,-1 m 3.5,-0.6 c -1,0 -1.7,0.7 -1.7,1.6 h 1.7 z m 0,0"
     id="path36"
     inkscape:connector-curvature="0"
     style="fill:#e6be34" />
  <path
     d="m 0,258.79999 22.4,-13 22.3,13 v 26 l -22.3,13 -22.4,-13 z m 0,0"
     id="path38"
     inkscape:connector-curvature="0"
     style="fill:#bf1927" />
  <path
     d="m 1,259.39999 21.4,-12.4 21.3,12.4 v 24.9 l -21.3,12.4 -21.4,-12.4 z m 44.7,26 v -27.1 l -23.3,-13.6 -22.4,13 v 28.4 l 22.4,13 z m 0,0"
     id="path40"
     inkscape:connector-curvature="0"
     style="fill:#e6be34" />
  <path
     d="m 22.4,250.59999 18.2,10.6 v 21.2 l -18.2,10.6 -18.3,-10.6 v -21.1 l 18.3,-10.6 m -19.3,10 v 22.4 l 19.3,11.2 19.2,-11.2 v -22.4 l -19.2,-11.2 z m 0,0"
     id="path42"
     inkscape:connector-curvature="0"
     style="fill:#e6be34" />
  <path
     d="m 20.8,269.29999 c 0.3,-0.2 0.5,-0.5 0.5,-0.9 0,-3.3 0.5,-6 1,-6 0.6,0 1,2.7 1,6 0,0.4 0.3,0.7 0.6,0.9 0.3,0.2 0.7,0.1 0.9,-0.1 3,-3.3 5.6,-7.5 2,-9.8 a 4,4 0 0 1 -1.4,-1.7 c -0.4,-1.3 -1.3,-2.2 -3,-2.2 -1.8,0 -2.7,0.9 -3.1,2.2 -0.3,0.8 -0.8,1.3 -1.5,1.7 -3.5,2.3 -0.8,6.5 2.1,9.8 0.2,0.3 0.6,0.3 0.9,0 m 15.8,-0.4 c -0.8,-0.3 -1.3,-0.8 -1.8,-1.5 -2.2,-3.5 -6.4,-0.8 -9.8,2.1 -0.3,0.2 -0.3,0.6 0,0.9 0.1,0.3 0.4,0.5 0.8,0.5 3.3,0 6,0.5 6,1 0,0.6 -2.7,1 -6,1 a 1,1 0 0 0 -0.9,0.6 c -0.2,0.3 -0.1,0.6 0.1,0.9 3.4,2.9 7.6,5.6 9.8,2 0.5,-0.6 1,-1.2 1.8,-1.4 1.3,-0.4 2.2,-1.3 2.2,-3 0,-1.8 -0.9,-2.7 -2.2,-3.1 m -12.7,5.5 a 1,1 0 0 0 -0.5,1 c 0,3.3 -0.5,6 -1,6 -0.6,0 -1,-2.7 -1,-6 a 1,1 0 0 0 -0.6,-1 1,1 0 0 0 -0.9,0.2 c -2.9,3.3 -5.6,7.5 -2,9.7 0.6,0.5 1.1,1 1.4,1.7 0.4,1.4 1.3,2.3 3,2.3 1.8,0 2.7,-0.9 3.1,-2.3 a 4,4 0 0 1 1.5,-1.7 c 3.5,-2.2 0.8,-6.4 -2.1,-9.7 -0.2,-0.3 -0.6,-0.3 -0.9,-0.1 m -4.1,-1.1 a 1,1 0 0 0 -0.9,-0.5 c -3.3,0 -6,-0.4 -6,-1 0,-0.5 2.7,-1 6,-1 0.4,0 0.7,-0.2 0.9,-0.5 0.2,-0.3 0.2,-0.7 -0.1,-0.9 -3.4,-2.9 -7.6,-5.6 -9.8,-2 -0.4,0.6 -1,1.1 -1.8,1.4 -1.3,0.4 -2.2,1.3 -2.2,3 0,1.8 0.9,2.7 2.2,3.1 0.8,0.2 1.3,0.8 1.8,1.4 2.2,3.6 6.4,0.8 9.8,-2 0.3,-0.3 0.3,-0.6 0,-1 m 2.7,-3.1 c -1,0 -1.7,0.7 -1.7,1.6 a 1.7,1.7 0 0 0 3.3,0 c 0,-0.9 -0.7,-1.6 -1.6,-1.6"
     id="path44"
     inkscape:connector-curvature="0"
     style="fill:#e6be34" />
  <path
     d="m 44.7,258.79999 22.3,-13 22.4,13 v 26 l -22.4,13 -22.3,-13 z m 0,0"
     id="path46"
     inkscape:connector-curvature="0"
     style="fill:#221815" />
  <path
     d="m 67,247.09999 21.4,12.3 v 24.9 l -21.4,12.4 -21.3,-12.4 v -24.8 l 21.3,-12.4 m -23.3,11.2 v 27.2 l 23.3,13.6 23.4,-13.6 v -27.2 l -23.4,-13.6 z m 0,0"
     id="path48"
     inkscape:connector-curvature="0"
     style="fill:#e6be34" />
  <path
     d="m 67,250.59999 18.3,10.6 v 21.2 l -18.3,10.6 -18.2,-10.6 v -21.1 l 18.2,-10.6 m -19.2,10 v 22.4 l 19.2,11.2 19.3,-11.2 v -22.4 l -19.3,-11.2 z m 0,0"
     id="path50"
     inkscape:connector-curvature="0"
     style="fill:#e6be34" />
  <path
     d="m 65.5,269.29999 c 0.3,-0.2 0.5,-0.5 0.5,-0.9 0,-3.3 0.5,-6 1,-6 0.6,0 1,2.7 1,6 0,0.4 0.3,0.7 0.6,0.9 0.3,0.2 0.7,0.1 0.9,-0.1 2.9,-3.3 5.6,-7.5 2,-9.8 a 4,4 0 0 1 -1.4,-1.7 c -0.4,-1.3 -1.3,-2.2 -3,-2.2 -1.8,0 -2.7,0.9 -3.1,2.2 -0.3,0.8 -0.8,1.3 -1.5,1.7 -3.5,2.3 -0.8,6.5 2.1,9.8 0.2,0.3 0.6,0.3 0.9,0 m 15.7,-0.4 a 4,4 0 0 1 -1.7,-1.5 c -2.2,-3.5 -6.4,-0.8 -9.8,2.1 -0.3,0.2 -0.3,0.6 0,0.9 0,0.3 0.4,0.5 0.8,0.5 3.3,0 6,0.5 6,1 0,0.6 -2.7,1 -6,1 a 1,1 0 0 0 -0.9,0.6 c -0.2,0.3 -0.1,0.6 0.1,0.9 3.4,2.9 7.6,5.6 9.8,2 0.5,-0.6 1,-1.2 1.8,-1.4 1.3,-0.4 2.2,-1.3 2.2,-3 0,-1.8 -0.9,-2.7 -2.2,-3.1 m -12.7,5.5 a 1,1 0 0 0 -0.5,1 c 0,3.3 -0.5,6 -1,6 -0.6,0 -1,-2.7 -1,-6 a 1,1 0 0 0 -0.6,-1 1,1 0 0 0 -0.9,0.2 c -3,3.3 -5.6,7.5 -2,9.7 0.6,0.5 1.1,1 1.4,1.7 0.4,1.4 1.3,2.3 3,2.3 1.8,0 2.7,-0.9 3.1,-2.3 a 4,4 0 0 1 1.5,-1.7 c 3.5,-2.2 0.8,-6.4 -2.1,-9.7 -0.2,-0.3 -0.6,-0.3 -0.9,-0.1 m -4.1,-1.1 a 1,1 0 0 0 -0.9,-0.5 c -3.3,0 -6,-0.4 -6,-1 0,-0.5 2.7,-1 6,-1 0.4,0 0.7,-0.2 0.9,-0.5 0.2,-0.3 0.1,-0.7 -0.1,-0.9 -3.4,-2.9 -7.6,-5.6 -9.8,-2 -0.5,0.6 -1,1.1 -1.8,1.4 -1.3,0.4 -2.2,1.3 -2.2,3 0,1.8 0.9,2.7 2.2,3.1 0.8,0.2 1.3,0.8 1.8,1.4 2.2,3.6 6.4,0.8 9.8,-2 0.3,-0.3 0.3,-0.6 0,-1 m 2.6,-3.1 c -0.9,0 -1.6,0.7 -1.6,1.6 0,1 0.7,1.7 1.6,1.7 1,0 1.7,-0.8 1.7,-1.7 0,-0.9 -0.7,-1.6 -1.7,-1.6"
     id="path52"
     inkscape:connector-curvature="0"
     style="fill:#e6be34" />
  <path
     d="m 89.4,258.79999 22.3,-13 22.4,13 v 26 l -22.4,13 -22.3,-13 z m 0,0"
     id="path54"
     inkscape:connector-curvature="0"
     style="fill:#366f8a" />
  <path
     d="m 111.7,247.09999 21.3,12.3 v 24.9 l -21.3,12.4 -21.3,-12.4 v -24.8 l 21.3,-12.4 m -23.3,11.2 v 27.2 l 23.3,13.6 23.4,-13.6 v -27.2 l -23.4,-13.6 z m 0,0"
     id="path56"
     inkscape:connector-curvature="0"
     style="fill:#e6be34" />
  <path
     d="m 111.7,250.59999 18.3,10.6 v 21.2 l -18.3,10.6 -18.2,-10.6 v -21.1 l 18.2,-10.6 m -19.2,10 v 22.4 l 19.2,11.2 19.3,-11.2 v -22.4 l -19.3,-11.2 z m 0,0"
     id="path58"
     inkscape:connector-curvature="0"
     style="fill:#e6be34" />
  <path
     d="m 110.2,269.29999 c 0.3,-0.2 0.5,-0.5 0.5,-0.9 0,-3.3 0.5,-6 1,-6 0.6,0 1,2.7 1,6 0,0.4 0.3,0.7 0.6,0.9 0.3,0.2 0.7,0.1 0.9,-0.1 2.9,-3.3 5.6,-7.5 2,-9.8 -0.6,-0.4 -1.2,-1 -1.4,-1.7 -0.4,-1.3 -1.3,-2.2 -3,-2.2 -1.8,0 -2.7,0.9 -3.1,2.2 -0.3,0.8 -0.8,1.3 -1.5,1.7 -3.5,2.3 -0.8,6.5 2.1,9.8 0.2,0.3 0.6,0.3 0.9,0 m 15.8,-0.4 c -0.8,-0.3 -1.4,-0.8 -1.8,-1.5 -2.2,-3.5 -6.4,-0.8 -9.8,2.1 -0.3,0.2 -0.3,0.6 -0.1,0.9 0.2,0.3 0.5,0.5 0.9,0.5 3.3,0 6,0.5 6,1 0,0.6 -2.7,1 -6,1 a 1,1 0 0 0 -0.9,0.6 c -0.2,0.3 -0.2,0.6 0.1,0.9 3.4,2.9 7.6,5.6 9.8,2 0.4,-0.6 1,-1.2 1.8,-1.4 1.3,-0.4 2.2,-1.3 2.2,-3 0,-1.8 -0.9,-2.7 -2.3,-3.1 m -12.6,5.5 a 1,1 0 0 0 -0.5,1 c 0,3.3 -0.5,6 -1,6 -0.6,0 -1,-2.7 -1,-6 a 1,1 0 0 0 -0.6,-1 c -0.3,-0.1 -0.7,0 -1,0.2 -2.8,3.3 -5.5,7.5 -2,9.7 a 4,4 0 0 1 1.5,1.7 c 0.4,1.4 1.3,2.3 3,2.3 1.8,0 2.7,-0.9 3.1,-2.3 0.2,-0.7 0.8,-1.2 1.5,-1.7 3.5,-2.2 0.8,-6.4 -2.1,-9.7 -0.2,-0.3 -0.6,-0.3 -0.9,-0.1 m -4.1,-1.1 a 1,1 0 0 0 -0.9,-0.5 c -3.3,0 -6,-0.4 -6,-1 0,-0.5 2.7,-1 6,-1 0.4,0 0.7,-0.2 0.9,-0.5 0.2,-0.3 0.1,-0.7 -0.1,-0.9 -3.4,-2.9 -7.6,-5.6 -9.9,-2 a 4,4 0 0 1 -1.7,1.4 c -1.3,0.4 -2.2,1.3 -2.2,3 0,1.8 0.9,2.7 2.2,3.1 0.8,0.2 1.3,0.8 1.7,1.4 2.3,3.6 6.5,0.8 9.9,-2 0.2,-0.3 0.3,-0.6 0,-1 m 2.6,-3.1 c -0.9,0 -1.6,0.7 -1.6,1.6 0,1 0.7,1.7 1.6,1.7 1,0 1.7,-0.8 1.7,-1.7 0,-0.9 -0.7,-1.6 -1.7,-1.6"
     id="path60"
     inkscape:connector-curvature="0"
     style="fill:#e6be34" />
  <path
     d="m 134.1,258.79999 22.3,-13 22.4,13 v 26 l -22.4,13 -22.3,-13 z m 0,0"
     id="path62"
     inkscape:connector-curvature="0"
     style="fill:#f9d6d6" />
  <path
     d="m 177.7,284.29999 -21.3,12.3 -21.2,-12.3 v -24.8 l 21.3,-12.3 21.3,12.3 z m -44.7,-26 v 27 l 23.4,13.6 22.4,-13 v -28.4 l -22.4,-13 z m 0,0"
     id="path64"
     inkscape:connector-curvature="0"
     style="fill:#e6be34" />
  <path
     d="m 156.4,250.59999 18.2,10.6 v 21.2 l -18.2,10.6 -18.2,-10.6 v -21.1 l 18.2,-10.6 m -19.2,10 v 22.4 l 19.2,11.2 19.3,-11.2 v -22.4 l -19.3,-11.2 z m 0,0"
     id="path66"
     inkscape:connector-curvature="0"
     style="fill:#e6be34" />
  <path
     d="m 154.9,269.29999 c 0.3,-0.2 0.5,-0.5 0.5,-0.9 0,-3.3 0.5,-6 1,-6 0.6,0 1,2.7 1,6 0,0.4 0.3,0.7 0.6,0.9 0.3,0.2 0.7,0.1 0.9,-0.1 2.9,-3.3 5.6,-7.5 2,-9.8 -0.6,-0.4 -1.2,-1 -1.4,-1.7 -0.4,-1.3 -1.3,-2.2 -3,-2.2 -1.8,0 -2.8,0.9 -3.2,2.2 -0.2,0.8 -0.7,1.3 -1.4,1.7 -3.5,2.3 -0.8,6.5 2.1,9.8 0.2,0.3 0.6,0.3 0.9,0 m 15.7,-0.4 c -0.7,-0.3 -1.3,-0.8 -1.7,-1.5 -2.2,-3.5 -6.5,-0.8 -9.8,2.1 -0.3,0.2 -0.3,0.6 -0.1,0.9 0.2,0.3 0.5,0.5 0.9,0.5 3.3,0 6,0.5 6,1 0,0.6 -2.7,1 -6,1 a 1,1 0 0 0 -1,0.6 c 0,0.3 0,0.6 0.2,0.9 3.4,2.9 7.6,5.6 9.8,2 0.4,-0.6 1,-1.2 1.7,-1.4 1.4,-0.4 2.3,-1.3 2.3,-3 0,-1.8 -0.9,-2.7 -2.3,-3.1 m -12.6,5.5 a 1,1 0 0 0 -0.6,1 c 0,3.3 -0.4,6 -1,6 -0.5,0 -1,-2.7 -1,-6 a 1,1 0 0 0 -0.5,-1 c -0.3,-0.1 -0.7,0 -1,0.2 -2.8,3.3 -5.5,7.5 -2,9.7 0.7,0.5 1.2,1 1.4,1.7 0.4,1.4 1.4,2.3 3.1,2.3 1.8,0 2.7,-0.9 3.1,-2.3 0.2,-0.7 0.8,-1.2 1.5,-1.7 3.5,-2.2 0.8,-6.4 -2.1,-9.7 -0.2,-0.3 -0.6,-0.3 -0.9,-0.1 m -4.1,-1.1 a 1,1 0 0 0 -0.9,-0.5 c -3.3,0 -6,-0.4 -6,-1 0,-0.5 2.7,-1 6,-1 0.4,0 0.7,-0.2 0.9,-0.5 0.2,-0.3 0.1,-0.7 -0.1,-0.9 -3.4,-2.9 -7.6,-5.6 -9.9,-2 a 4,4 0 0 1 -1.7,1.4 c -1.4,0.4 -2.2,1.3 -2.2,3 0,1.8 0.8,2.7 2.2,3.1 0.8,0.2 1.3,0.8 1.7,1.4 2.3,3.6 6.5,0.8 9.9,-2 0.2,-0.3 0.2,-0.6 0,-1 m 2.6,-3.1 c -0.9,0 -1.6,0.7 -1.6,1.6 a 1.7,1.7 0 0 0 3.3,0 c 0,-0.9 -0.7,-1.6 -1.7,-1.6 m -155.4,-11.9 -1,-0.7 v 28.4 l 1,-0.6 z m 176.7,27.1 1,0.6 v -28.4 l -1,0.6 z m 0,0"
     id="path68"
     inkscape:connector-curvature="0"
     style="fill:#e6be34" />
  <path
     d="m 22.4,219.89999 22.3,-13 22.3,13 v 26 l -22.3,13 -22.3,-13 z m 0,0"
     id="path70"
     inkscape:connector-curvature="0"
     style="fill:#bf1927" />
  <path
     d="m 44.7,208.09999 21.3,12.4 v 24.8 l -21.3,12.3 -21.3,-12.3 v -24.8 l 21.3,-12.4 m -23.4,11.2 v 27 l 23.4,13.6 23.4,-13.6 v -27 l -23.4,-13.6 z m 0,0"
     id="path72"
     inkscape:connector-curvature="0"
     style="fill:#e6be34" />
  <path
     d="m 44.7,211.69999 18.2,10.6 v 21 l -18.2,10.6 -18.2,-10.6 v -21 l 18.2,-10.6 m -19.3,10 v 22.3 l 19.3,11.2 19.3,-11.2 v -22.3 l -19.3,-11.2 z m 0,0"
     id="path74"
     inkscape:connector-curvature="0"
     style="fill:#e6be34" />
  <path
     d="m 43.2,230.29999 c 0.3,-0.2 0.5,-0.5 0.5,-0.9 0,-3.3 0.4,-6 1,-6 0.6,0 1,2.7 1,6 0,0.4 0.2,0.7 0.6,1 0.3,0.1 0.6,0 0.8,-0.2 3,-3.3 5.7,-7.5 2.1,-9.8 -0.6,-0.4 -1.2,-1 -1.4,-1.7 -0.4,-1.3 -1.3,-2.2 -3.1,-2.2 -1.8,0 -2.7,0.9 -3,2.2 -0.3,0.8 -0.9,1.3 -1.5,1.7 -3.6,2.3 -0.8,6.5 2,9.8 0.3,0.3 0.7,0.3 1,0.1 m 15.7,-0.5 c -0.7,-0.2 -1.3,-0.8 -1.7,-1.4 -2.3,-3.6 -6.5,-0.9 -9.9,2 -0.2,0.3 -0.2,0.6 0,0.9 0.1,0.3 0.5,0.5 0.8,0.5 3.4,0 6,0.5 6,1 0,0.6 -2.6,1 -6,1 a 1,1 0 0 0 -0.8,0.6 c -0.2,0.3 -0.2,0.7 0,0.9 3.4,2.9 7.6,5.6 9.9,2 0.4,-0.6 1,-1.2 1.7,-1.4 1.4,-0.4 2.3,-1.3 2.3,-3 0,-1.8 -1,-2.7 -2.3,-3.1 m -12.7,5.5 a 1,1 0 0 0 -0.5,1 c 0,3.3 -0.4,6 -1,6 -0.6,0 -1,-2.7 -1,-6 a 1,1 0 0 0 -0.6,-1 c -0.2,0 -0.6,0 -0.8,0.2 -3,3.3 -5.7,7.5 -2.1,9.8 0.6,0.4 1.2,1 1.4,1.7 0.4,1.3 1.3,2.2 3.1,2.2 1.8,0 2.7,-0.9 3,-2.2 0.3,-0.8 0.9,-1.3 1.5,-1.7 3.6,-2.3 0.8,-6.5 -2,-9.8 a 0.8,0.8 0 0 0 -1,-0.1 m -4,-1 a 1,1 0 0 0 -1,-0.5 c -3.3,0 -6,-0.5 -6,-1 0,-0.6 2.7,-1 6,-1 0.4,0 0.8,-0.3 1,-0.6 a 1,1 0 0 0 -0.2,-0.9 c -3.3,-2.9 -7.5,-5.6 -9.8,-2 -0.4,0.6 -1,1.2 -1.7,1.4 -1.4,0.4 -2.3,1.3 -2.3,3 0,1.8 1,2.7 2.3,3.1 a 3,3 0 0 1 1.7,1.5 c 2.3,3.5 6.5,0.8 9.9,-2.1 0.2,-0.2 0.2,-0.6 0,-0.9 m 2.6,-3.2 c -1,0 -1.7,0.7 -1.7,1.7 a 1.7,1.7 0 0 0 3.4,0 c 0,-1 -0.8,-1.7 -1.7,-1.7"
     id="path76"
     inkscape:connector-curvature="0"
     style="fill:#e6be34" />
  <path
     d="m 67,219.89999 22.4,-13 22.3,13 v 26 l -22.3,13 -22.4,-13 z m 0,0"
     id="path78"
     inkscape:connector-curvature="0"
     style="fill:#221815" />
  <path
     d="m 89.4,208.09999 21.3,12.4 v 24.8 l -21.3,12.3 -21.3,-12.3 v -24.8 l 21.3,-12.4 m -23.4,11.2 v 27 l 23.4,13.6 23.4,-13.6 v -27 l -23.4,-13.6 z m 0,0"
     id="path80"
     inkscape:connector-curvature="0"
     style="fill:#e6be34" />
  <path
     d="m 89.4,211.69999 18.2,10.6 v 21 l -18.2,10.6 -18.2,-10.6 v -21 l 18.2,-10.6 m -19.3,10 v 22.3 l 19.3,11.2 19.3,-11.2 v -22.3 l -19.3,-11.2 z m 0,0"
     id="path82"
     inkscape:connector-curvature="0"
     style="fill:#e6be34" />
  <path
     d="m 87.8,230.29999 c 0.3,-0.2 0.6,-0.5 0.6,-0.9 0,-3.3 0.4,-6 1,-6 0.6,0 1,2.7 1,6 0,0.4 0.2,0.7 0.6,1 0.2,0 0.6,0 0.8,-0.2 3,-3.3 5.7,-7.5 2.1,-9.8 -0.6,-0.4 -1.2,-1 -1.4,-1.7 -0.4,-1.3 -1.4,-2.2 -3.1,-2.2 -1.8,0 -2.7,0.9 -3,2.2 -0.3,0.8 -0.9,1.3 -1.5,1.7 -3.6,2.3 -0.9,6.5 2,9.8 0.3,0.3 0.7,0.3 1,0.1 m 15.7,-0.5 c -0.7,-0.2 -1.3,-0.8 -1.7,-1.4 -2.3,-3.6 -6.5,-0.9 -9.9,2 -0.2,0.3 -0.2,0.6 0,0.9 0.1,0.3 0.5,0.5 0.8,0.5 3.4,0 6,0.5 6,1 0,0.6 -2.6,1 -6,1 a 1,1 0 0 0 -0.9,0.6 c -0.1,0.3 -0.1,0.7 0.2,0.9 3.3,2.9 7.5,5.6 9.8,2 0.4,-0.6 1,-1.2 1.7,-1.4 1.4,-0.4 2.3,-1.3 2.3,-3 0,-1.8 -1,-2.7 -2.3,-3.1 m -12.6,5.5 a 1,1 0 0 0 -0.6,1 c 0,3.3 -0.4,6 -1,6 -0.6,0 -1,-2.7 -1,-6 a 1,1 0 0 0 -0.6,-1 c -0.3,0 -0.6,0 -0.9,0.2 -2.9,3.3 -5.6,7.5 -2,9.8 0.6,0.4 1.2,1 1.4,1.7 0.4,1.3 1.3,2.2 3.1,2.2 1.7,0 2.7,-0.9 3,-2.2 0.3,-0.8 0.9,-1.3 1.5,-1.7 3.6,-2.3 0.8,-6.5 -2,-9.8 a 0.8,0.8 0 0 0 -1,-0.1 m -4.1,-1 a 1,1 0 0 0 -0.8,-0.5 c -3.4,0 -6,-0.5 -6,-1 0,-0.6 2.6,-1 6,-1 0.3,0 0.6,-0.3 0.8,-0.6 0.2,-0.3 0.2,-0.7 0,-0.9 -3.4,-2.9 -7.6,-5.6 -9.9,-2 -0.4,0.6 -1,1.2 -1.7,1.4 -1.4,0.4 -2.3,1.3 -2.3,3 0,1.8 1,2.7 2.3,3.1 a 3,3 0 0 1 1.7,1.5 c 2.3,3.5 6.5,0.8 9.9,-2.1 0.2,-0.2 0.2,-0.6 0,-0.9 m 2.6,-3.2 c -1,0 -1.7,0.7 -1.7,1.7 a 1.7,1.7 0 0 0 3.4,0 c 0,-1 -0.8,-1.7 -1.7,-1.7"
     id="path84"
     inkscape:connector-curvature="0"
     style="fill:#e6be34" />
  <path
     d="m 111.7,219.89999 22.4,-13 22.3,13 v 26 l -22.3,13 -22.4,-13 z m 0,0"
     id="path86"
     inkscape:connector-curvature="0"
     style="fill:#366f8a" />
  <path
     d="m 134.1,208.09999 21.3,12.4 v 24.8 l -21.3,12.3 -21.3,-12.3 v -24.8 l 21.3,-12.4 m -23.4,11.2 v 27 l 23.4,13.6 23.4,-13.6 v -27 l -23.4,-13.6 z m 0,0"
     id="path88"
     inkscape:connector-curvature="0"
     style="fill:#e6be34" />
  <path
     d="m 134.1,211.69999 18.1,10.6 v 21 l -18.2,10.6 -18.2,-10.6 v -21 l 18.2,-10.6 m -19.3,10 v 22.3 l 19.5,11.3 19.2,-11.2 v -22.3 l -19.2,-11.3 z m 0,0"
     id="path90"
     inkscape:connector-curvature="0"
     style="fill:#e6be34" />
  <path
     d="m 132.5,230.29999 c 0.3,-0.2 0.6,-0.5 0.6,-0.9 0,-3.3 0.4,-6 1,-6 0.5,0 1,2.7 1,6 0,0.4 0.2,0.7 0.5,1 0.3,0 0.7,0 1,-0.2 2.8,-3.3 5.6,-7.5 2,-9.8 -0.6,-0.4 -1.2,-1 -1.4,-1.7 -0.4,-1.3 -1.4,-2.2 -3.1,-2.2 -1.8,0 -2.7,0.9 -3.1,2.2 -0.2,0.8 -0.8,1.3 -1.4,1.7 -3.6,2.3 -0.9,6.5 2,9.8 0.3,0.3 0.6,0.3 1,0.1 m 15.7,-0.5 c -0.7,-0.2 -1.3,-0.8 -1.7,-1.4 -2.3,-3.6 -6.5,-0.9 -9.9,2 -0.2,0.3 -0.2,0.6 0,0.9 0.1,0.3 0.5,0.5 0.8,0.5 3.4,0 6,0.5 6,1 0,0.6 -2.6,1 -6,1 a 1,1 0 0 0 -0.9,0.6 c -0.1,0.3 -0.1,0.7 0.1,0.9 3.4,2.9 7.6,5.6 9.9,2 0.4,-0.6 1,-1.2 1.7,-1.4 1.4,-0.4 2.3,-1.3 2.3,-3 0,-1.8 -1,-2.7 -2.3,-3.1 m -12.7,5.5 a 1,1 0 0 0 -0.5,1 c 0,3.3 -0.5,6 -1,6 -0.6,0 -1,-2.7 -1,-6 a 1,1 0 0 0 -0.6,-1 c -0.3,0 -0.6,0 -0.9,0.2 -2.9,3.3 -5.6,7.5 -2,9.8 0.6,0.4 1.2,1 1.4,1.7 0.4,1.3 1.3,2.2 3,2.2 1.8,0 2.8,-0.9 3.2,-2.2 0.2,-0.8 0.8,-1.3 1.4,-1.7 3.6,-2.3 0.8,-6.5 -2,-9.8 a 0.8,0.8 0 0 0 -1,-0.1 m -4.1,-1 a 1,1 0 0 0 -0.9,-0.5 c -3.3,0 -6,-0.5 -6,-1 0,-0.6 2.7,-1 6,-1 0.4,0 0.7,-0.3 1,-0.6 a 1,1 0 0 0 -0.2,-0.9 c -3.3,-2.9 -7.6,-5.6 -9.8,-2 -0.4,0.6 -1,1.2 -1.7,1.4 -1.4,0.4 -2.3,1.3 -2.3,3 0,1.8 0.9,2.7 2.3,3.1 a 3,3 0 0 1 1.7,1.5 c 2.2,3.5 6.5,0.8 9.8,-2.1 0.3,-0.2 0.3,-0.6 0.1,-0.9 m 2.6,-3.2 c -1,0 -1.7,0.7 -1.7,1.7 a 1.7,1.7 0 0 0 3.4,0 c 0,-1 -0.8,-1.7 -1.7,-1.7"
     id="path92"
     inkscape:connector-curvature="0"
     style="fill:#e6be34" />
  <path
     d="m 156.4,219.89999 v 26 l 22.4,13 v -52 z m 0,0"
     id="path94"
     inkscape:connector-curvature="0"
     style="fill:#f9d6d6" />
  <path
     d="m 157.5,245.29999 v -24.8 l 21.3,-12.4 v -2.4 l -23.4,13.6 v 27 l 23.4,13.6 v -2.4 l -21.3,-12.2"
     id="path96"
     inkscape:connector-curvature="0"
     style="fill:#e6be34" />
  <path
     d="m 160.6,243.39999 v -21.1 l 18.2,-10.6 v -1.2 l -19.3,11.2 v 22.3 l 19.3,11.2 v -1.2 l -18.2,-10.6"
     id="path98"
     inkscape:connector-curvature="0"
     style="fill:#e6be34" />
  <path
     d="m 175.7,218.69999 c -0.2,0.8 -0.8,1.3 -1.4,1.7 -3.6,2.3 -0.9,6.5 2,9.8 0.3,0.3 0.6,0.3 1,0.1 0.2,-0.2 0.5,-0.5 0.5,-0.9 0,-3.3 0.4,-6 1,-6 v -7 c -1.8,0 -2.7,1 -3.1,2.3 m 2.1,17.6 a 1,1 0 0 0 -0.6,-1 c -0.3,0 -0.6,0 -0.9,0.2 -2.9,3.3 -5.6,7.5 -2,9.8 0.6,0.4 1.2,1 1.4,1.7 0.4,1.3 1.3,2.2 3,2.2 v -7 c -0.5,0 -1,-2.6 -1,-6 m -1.5,-1.8 a 1,1 0 0 0 -0.9,-0.5 c -3.3,0 -6,-0.5 -6,-1 0,-0.6 2.7,-1 6,-1 0.4,0 0.7,-0.3 1,-0.6 a 1,1 0 0 0 -0.2,-0.9 c -3.3,-2.9 -7.6,-5.6 -9.8,-2 -0.4,0.6 -1,1.2 -1.7,1.4 -1.4,0.4 -2.3,1.3 -2.3,3 0,1.8 0.9,2.7 2.3,3.1 a 3,3 0 0 1 1.7,1.5 c 2.2,3.5 6.5,0.8 9.8,-2.1 0.3,-0.2 0.3,-0.6 0.1,-0.9 m 1,-1.5 c 0,0.9 0.7,1.6 1.6,1.6 v -3.2 c -1,0 -1.7,0.7 -1.7,1.7"
     id="path100"
     inkscape:connector-curvature="0"
     style="fill:#e6be34" />
  <path
     d="m 22.4,245.79999 v -26 l -22.4,-13 v 52 z m 0,0"
     id="path102"
     inkscape:connector-curvature="0"
     style="fill:#f9d6d6" />
  <path
     d="m 23.4,246.39999 v -27.1 l -23.4,-13.6 v 2.4 l 21.3,12.4 v 24.8 l -21.3,12.3 v 2.4 z m 0,0"
     id="path104"
     inkscape:connector-curvature="0"
     style="fill:#e6be34" />
  <path
     d="m 19.2,243.99999 v -22.3 l -19.2,-11.2 v 1.2 l 18.2,10.6 v 21 l -18.2,10.6 v 1.2 z m 0,0"
     id="path106"
     inkscape:connector-curvature="0"
     style="fill:#e6be34" />
  <path
     d="m 1,229.39999 c 0,0.4 0.3,0.7 0.6,1 0.3,0 0.6,0 0.9,-0.2 2.9,-3.3 5.6,-7.5 2,-9.8 -0.6,-0.4 -1.2,-1 -1.4,-1.7 -0.4,-1.3 -1.3,-2.2 -3,-2.2 v 7 c 0.5,0 1,2.6 1,6 m 13.1,0.3 c -0.7,-0.2 -1.3,-0.8 -1.7,-1.4 -2.3,-3.6 -6.5,-0.9 -9.8,2 -0.3,0.3 -0.3,0.6 -0.1,0.9 0.2,0.3 0.5,0.5 0.8,0.5 3.4,0 6,0.5 6,1 0,0.6 -2.6,1 -6,1 a 1,1 0 0 0 -0.8,0.6 c -0.2,0.3 -0.2,0.7 0,0.9 3.4,2.9 7.7,5.6 9.9,2 0.4,-0.6 1,-1.2 1.7,-1.4 1.4,-0.4 2.3,-1.3 2.3,-3 0,-1.8 -1,-2.7 -2.3,-3.1 m -11.1,17.2 c 0.2,-0.8 0.8,-1.3 1.4,-1.7 3.6,-2.3 0.9,-6.5 -2,-9.8 -0.3,-0.3 -0.6,-0.3 -1,-0.1 a 1,1 0 0 0 -0.5,0.9 c 0,3.3 -0.4,6 -1,6 v 7 c 1.8,0 2.7,-1 3,-2.3 m -1.3,-14.1 c 0,-1 -0.8,-1.7 -1.7,-1.7 v 3.3 c 1,0 1.7,-0.7 1.7,-1.6"
     id="path108"
     inkscape:connector-curvature="0"
     style="fill:#e6be34" />
  <path
     d="m 44.7,180.89999 22.3,-13 22.4,13 v 26 l -22.4,13 -22.3,-13 z m 0,0"
     id="path110"
     inkscape:connector-curvature="0"
     style="fill:#bf1927" />
  <path
     d="m 67,169.09999 21.4,12.4 v 24.8 l -21.4,12.4 -21.3,-12.4 v -24.8 l 21.3,-12.4 m -23.3,11.2 v 27.2 l 23.3,13.6 23.4,-13.6 v -27.2 l -23.4,-13.6 z m 0,0"
     id="path112"
     inkscape:connector-curvature="0"
     style="fill:#e6be34" />
  <path
     d="m 67,172.69999 18.3,10.6 v 21.2 l -18.3,10.6 -18.2,-10.6 v -21.2 l 18.2,-10.6 m -19.2,10 v 22.4 l 19.2,11.2 19.3,-11.2 v -22.4 l -19.3,-11.2 z m 0,0"
     id="path114"
     inkscape:connector-curvature="0"
     style="fill:#e6be34" />
  <path
     d="m 65.5,191.29999 c 0.3,-0.1 0.5,-0.5 0.5,-0.8 0,-3.3 0.5,-6 1,-6 0.6,0 1,2.7 1,6 0,0.3 0.3,0.7 0.6,0.8 0.3,0.2 0.7,0.2 0.9,0 2.9,-3.4 5.6,-7.6 2,-9.8 a 4,4 0 0 1 -1.4,-1.7 c -0.4,-1.4 -1.3,-2.3 -3,-2.3 -1.8,0 -2.7,1 -3.1,2.3 -0.3,0.7 -0.8,1.3 -1.5,1.7 -3.5,2.2 -0.8,6.4 2.1,9.8 0.2,0.2 0.6,0.2 0.9,0 m 15.7,-0.5 c -0.7,-0.2 -1.2,-0.8 -1.7,-1.4 -2.2,-3.5 -6.4,-0.8 -9.8,2 -0.3,0.3 -0.3,0.6 0,1 0,0.2 0.4,0.5 0.8,0.5 3.3,0 6,0.4 6,1 0,0.5 -2.7,1 -6,1 a 1,1 0 0 0 -0.9,0.5 c -0.2,0.3 -0.1,0.7 0.1,1 3.4,2.8 7.6,5.5 9.8,2 0.5,-0.7 1,-1.2 1.8,-1.5 1.3,-0.4 2.2,-1.3 2.2,-3 0,-1.8 -0.9,-2.7 -2.2,-3 m -12.7,5.5 a 1,1 0 0 0 -0.5,0.9 c 0,3.3 -0.5,6 -1,6 -0.6,0 -1,-2.7 -1,-6 a 1,1 0 0 0 -0.6,-0.9 c -0.3,-0.2 -0.7,-0.1 -0.9,0.1 -3,3.4 -5.6,7.6 -2,9.8 a 4,4 0 0 1 1.4,1.7 c 0.4,1.4 1.3,2.2 3,2.2 1.8,0 2.7,-0.8 3.1,-2.2 0.3,-0.7 0.8,-1.3 1.5,-1.7 3.5,-2.3 0.8,-6.5 -2.1,-9.8 a 0.6,0.6 0 0 0 -0.9,0 m -4.1,-1.1 a 1,1 0 0 0 -0.9,-0.5 c -3.3,0 -6,-0.5 -6,-1 0,-0.6 2.7,-1 6,-1 0.4,0 0.7,-0.3 0.9,-0.6 0.2,-0.3 0.1,-0.6 -0.1,-0.9 -3.4,-2.8 -7.6,-5.5 -9.8,-2 -0.5,0.6 -1,1.2 -1.8,1.4 -1.3,0.4 -2.2,1.3 -2.2,3 0,1.8 0.9,2.7 2.2,3.1 0.8,0.3 1.3,0.8 1.8,1.5 2.2,3.5 6.4,0.8 9.8,-2.1 0.3,-0.2 0.3,-0.6 0,-0.9 m 2.6,-3.1 c -0.9,0 -1.6,0.7 -1.6,1.6 a 1.7,1.7 0 0 0 3.3,0 c 0,-1 -0.7,-1.7 -1.7,-1.7"
     id="path116"
     inkscape:connector-curvature="0"
     style="fill:#e6be34" />
  <path
     d="m 89.4,180.89999 22.3,-13 22.4,13 v 26 l -22.4,13 -22.3,-13 z m 0,0"
     id="path118"
     inkscape:connector-curvature="0"
     style="fill:#221815" />
  <path
     d="m 111.7,169.09999 21.3,12.4 v 24.8 l -21.3,12.4 -21.3,-12.4 v -24.8 l 21.3,-12.4 m -23.3,11.2 v 27.2 l 23.3,13.6 23.4,-13.6 v -27.2 l -23.4,-13.6 z m 0,0"
     id="path120"
     inkscape:connector-curvature="0"
     style="fill:#e6be34" />
  <path
     d="m 111.7,172.69999 18.3,10.6 v 21.2 l -18.3,10.6 -18.2,-10.6 v -21.2 l 18.2,-10.6 m -19.2,10 v 22.4 l 19.2,11.2 19.3,-11.2 v -22.4 l -19.3,-11.2 z m 0,0"
     id="path122"
     inkscape:connector-curvature="0"
     style="fill:#e6be34" />
  <path
     d="m 110.2,191.29999 c 0.3,-0.1 0.5,-0.5 0.5,-0.8 0,-3.3 0.5,-6 1,-6 0.6,0 1,2.7 1,6 0,0.3 0.3,0.7 0.6,0.8 0.3,0.2 0.7,0.2 0.9,0 2.9,-3.4 5.6,-7.6 2,-9.8 -0.6,-0.4 -1.2,-1 -1.4,-1.7 -0.4,-1.4 -1.3,-2.3 -3,-2.3 -1.8,0 -2.7,0.9 -3.1,2.3 -0.3,0.7 -0.8,1.3 -1.5,1.7 -3.5,2.2 -0.8,6.4 2.1,9.8 0.2,0.2 0.6,0.2 0.9,0 m 15.8,-0.5 c -0.8,-0.2 -1.4,-0.8 -1.8,-1.4 -2.2,-3.5 -6.4,-0.8 -9.8,2 -0.3,0.3 -0.3,0.6 -0.1,1 0.2,0.2 0.5,0.5 0.9,0.5 3.3,0 6,0.4 6,1 0,0.5 -2.7,1 -6,1 a 1,1 0 0 0 -0.9,0.5 c -0.2,0.3 -0.2,0.7 0.1,1 3.4,2.8 7.6,5.5 9.8,2 0.4,-0.7 1,-1.2 1.8,-1.5 1.3,-0.4 2.2,-1.3 2.2,-3 0,-1.8 -0.9,-2.7 -2.3,-3 m -12.6,5.5 a 1,1 0 0 0 -0.5,0.9 c 0,3.3 -0.5,6 -1,6 -0.6,0 -1,-2.7 -1,-6 a 1,1 0 0 0 -0.6,-0.9 c -0.3,-0.2 -0.7,-0.1 -1,0.1 -2.8,3.4 -5.5,7.6 -2,9.8 0.7,0.4 1.2,1 1.5,1.7 0.4,1.4 1.3,2.2 3,2.2 1.8,0 2.7,-0.8 3.1,-2.2 a 3,3 0 0 1 1.5,-1.7 c 3.5,-2.3 0.8,-6.5 -2.1,-9.8 a 0.6,0.6 0 0 0 -0.9,0 m -4.1,-1.1 a 1,1 0 0 0 -0.9,-0.5 c -3.3,0 -6,-0.5 -6,-1 0,-0.6 2.7,-1 6,-1 0.4,0 0.7,-0.3 0.9,-0.6 0.2,-0.3 0.1,-0.6 -0.1,-0.9 -3.4,-2.8 -7.6,-5.5 -9.9,-2 -0.4,0.6 -1,1.2 -1.7,1.4 -1.3,0.4 -2.2,1.3 -2.2,3 0,1.8 0.9,2.7 2.2,3.1 0.8,0.3 1.3,0.8 1.7,1.5 2.3,3.5 6.5,0.8 9.9,-2.1 0.2,-0.2 0.3,-0.6 0,-0.9 m 2.6,-3.1 c -0.9,0 -1.6,0.7 -1.6,1.6 a 1.7,1.7 0 0 0 3.3,0 c 0,-1 -0.7,-1.7 -1.7,-1.7"
     id="path124"
     inkscape:connector-curvature="0"
     style="fill:#e6be34" />
  <path
     d="m 134.1,180.89999 22.3,-13 22.4,13 v 26 l -22.4,13 -22.3,-13 z m 0,0"
     id="path126"
     inkscape:connector-curvature="0"
     style="fill:#366f8a" />
  <path
     d="m 177.7,206.29999 -21.3,12.4 -21.2,-12.4 v -24.8 l 21.3,-12.4 21.3,12.4 z m -44.7,-26 v 27.2 l 23.4,13.6 22.4,-13 v -28.4 l -22.4,-13 z m 0,0"
     id="path128"
     inkscape:connector-curvature="0"
     style="fill:#e6be34" />
  <path
     d="m 156.4,172.69999 18.2,10.6 v 21.2 l -18.2,10.6 -18.2,-10.6 v -21.2 l 18.2,-10.6 m -19.2,10 v 22.4 l 19.2,11.2 19.3,-11.2 v -22.4 l -19.3,-11.2 z m 0,0"
     id="path130"
     inkscape:connector-curvature="0"
     style="fill:#e6be34" />
  <path
     d="m 154.9,191.29999 c 0.3,-0.1 0.5,-0.5 0.5,-0.8 0,-3.3 0.5,-6 1,-6 0.6,0 1,2.7 1,6 0,0.3 0.3,0.7 0.6,0.8 0.3,0.2 0.7,0.2 0.9,0 2.9,-3.4 5.6,-7.6 2,-9.8 -0.6,-0.4 -1.2,-1 -1.4,-1.7 -0.4,-1.4 -1.3,-2.3 -3,-2.3 -1.8,0 -2.8,0.9 -3.2,2.3 a 3,3 0 0 1 -1.4,1.7 c -3.5,2.2 -0.8,6.4 2.1,9.8 0.2,0.2 0.6,0.2 0.9,0 m 15.7,-0.5 c -0.7,-0.2 -1.3,-0.8 -1.7,-1.4 -2.2,-3.5 -6.5,-0.8 -9.8,2 -0.3,0.3 -0.3,0.6 -0.1,1 0.2,0.2 0.5,0.5 0.9,0.5 3.3,0 6,0.4 6,1 0,0.5 -2.7,1 -6,1 a 1,1 0 0 0 -1,0.5 c 0,0.3 0,0.7 0.2,1 3.4,2.8 7.6,5.5 9.8,2 0.4,-0.7 1,-1.2 1.7,-1.5 1.4,-0.4 2.3,-1.3 2.3,-3 0,-1.8 -0.9,-2.7 -2.3,-3 m -12.6,5.5 a 1,1 0 0 0 -0.6,0.9 c 0,3.3 -0.4,6 -1,6 -0.5,0 -1,-2.7 -1,-6 a 1,1 0 0 0 -0.5,-0.9 c -0.3,-0.2 -0.7,-0.1 -1,0.1 -2.8,3.4 -5.5,7.6 -2,9.8 a 3,3 0 0 1 1.4,1.7 c 0.4,1.4 1.4,2.2 3.1,2.2 1.8,0 2.7,-0.8 3.1,-2.2 a 3,3 0 0 1 1.5,-1.7 c 3.5,-2.3 0.8,-6.5 -2.1,-9.8 a 0.6,0.6 0 0 0 -0.9,0 m -4.1,-1.1 a 1,1 0 0 0 -0.9,-0.5 c -3.3,0 -6,-0.5 -6,-1 0,-0.6 2.7,-1 6,-1 0.4,0 0.7,-0.3 0.9,-0.6 0.2,-0.3 0.1,-0.6 -0.1,-0.9 -3.4,-2.8 -7.6,-5.5 -9.9,-2 -0.4,0.6 -1,1.2 -1.7,1.4 -1.4,0.4 -2.2,1.3 -2.2,3 0,1.8 0.8,2.7 2.2,3.1 0.8,0.3 1.3,0.8 1.7,1.5 2.3,3.5 6.5,0.8 9.9,-2.1 0.2,-0.2 0.2,-0.6 0,-0.9 m 2.6,-3.1 c -0.9,0 -1.6,0.7 -1.6,1.6 a 1.7,1.7 0 0 0 3.3,0 c 0,-1 -0.7,-1.7 -1.7,-1.7 m 21.3,15.3 1,0.6 v -28.4 l -1,0.6 z m -176.7,-27.2 -1,-0.6 v 28.4 l 1,-0.6 z m 0,0"
     id="path132"
     inkscape:connector-curvature="0"
     style="fill:#e6be34" />
  <path
     d="m 44.7,206.89999 v -26 l -22.3,-13 -22.4,13 v 26 l 22.4,13 z m 0,0"
     id="path134"
     inkscape:connector-curvature="0"
     style="fill:#f9d6d6" />
  <path
     d="m 1,181.49999 21.4,-12.4 21.3,12.4 v 24.8 l -21.3,12.4 -21.4,-12.4 z m 44.7,26 v -27.2 l -23.3,-13.6 -22.4,13 v 28.4 l 22.4,13 z m 0,0"
     id="path136"
     inkscape:connector-curvature="0"
     style="fill:#e6be34" />
  <path
     d="m 22.4,172.69999 18.2,10.6 v 21.2 l -18.2,10.6 -18.3,-10.6 v -21.2 l 18.3,-10.6 m -19.3,10 v 22.4 l 19.3,11.2 19.2,-11.2 v -22.4 l -19.2,-11.2 z m 0,0"
     id="path138"
     inkscape:connector-curvature="0"
     style="fill:#e6be34" />
  <path
     d="m 20.8,191.29999 c 0.3,-0.1 0.5,-0.5 0.5,-0.8 0,-3.3 0.5,-6 1,-6 0.6,0 1,2.7 1,6 0,0.3 0.3,0.7 0.6,0.8 0.3,0.2 0.7,0.2 0.9,0 3,-3.4 5.6,-7.6 2,-9.8 a 4,4 0 0 1 -1.4,-1.7 c -0.4,-1.4 -1.3,-2.3 -3,-2.3 -1.8,0 -2.7,0.9 -3.1,2.3 -0.3,0.7 -0.8,1.3 -1.5,1.7 -3.5,2.2 -0.8,6.4 2.1,9.8 0.2,0.2 0.6,0.2 0.9,0 m 15.8,-0.5 c -0.8,-0.2 -1.3,-0.8 -1.8,-1.4 -2.2,-3.5 -6.4,-0.8 -9.8,2 -0.3,0.3 -0.3,0.6 0,1 0.1,0.2 0.4,0.5 0.8,0.5 3.3,0 6,0.4 6,1 0,0.5 -2.7,1 -6,1 a 1,1 0 0 0 -0.9,0.5 c -0.2,0.3 -0.1,0.7 0.1,1 3.4,2.8 7.6,5.5 9.8,2 0.5,-0.7 1,-1.2 1.8,-1.5 1.3,-0.4 2.2,-1.3 2.2,-3 0,-1.8 -0.9,-2.7 -2.2,-3 m -12.7,5.5 a 1,1 0 0 0 -0.5,0.9 c 0,3.3 -0.5,6 -1,6 -0.6,0 -1,-2.7 -1,-6 a 1,1 0 0 0 -0.6,-0.9 c -0.3,-0.2 -0.7,-0.1 -0.9,0.1 -2.9,3.4 -5.6,7.6 -2,9.8 a 4,4 0 0 1 1.4,1.7 c 0.4,1.4 1.3,2.2 3,2.2 1.8,0 2.7,-0.8 3.1,-2.2 0.3,-0.7 0.8,-1.3 1.5,-1.7 3.5,-2.3 0.8,-6.5 -2.1,-9.8 a 0.6,0.6 0 0 0 -0.9,0 m -4.1,-1.1 a 1,1 0 0 0 -0.9,-0.5 c -3.3,0 -6,-0.5 -6,-1 0,-0.6 2.7,-1 6,-1 0.4,0 0.7,-0.3 0.9,-0.6 0.2,-0.3 0.2,-0.6 -0.1,-0.9 -3.4,-2.8 -7.6,-5.5 -9.8,-2 -0.4,0.6 -1,1.2 -1.8,1.4 -1.3,0.4 -2.2,1.3 -2.2,3 0,1.8 0.9,2.7 2.2,3.1 0.8,0.3 1.3,0.8 1.8,1.5 2.2,3.5 6.4,0.8 9.8,-2.1 0.3,-0.2 0.3,-0.6 0,-0.9 m 2.7,-3.1 c -1,0 -1.7,0.7 -1.7,1.6 a 1.7,1.7 0 0 0 3.3,0 c 0,-1 -0.7,-1.7 -1.6,-1.7"
     id="path140"
     inkscape:connector-curvature="0"
     style="fill:#e6be34" />
  <path
     d="m 67,141.89999 22.4,-13 22.3,13 v 26 l -22.3,13 -22.4,-13 z m 0,0"
     id="path142"
     inkscape:connector-curvature="0"
     style="fill:#bf1927" />
  <path
     d="m 89.4,130.09999 21.3,12.4 v 24.8 l -21.3,12.4 -21.3,-12.4 v -24.8 l 21.3,-12.4 m -23.4,11.2 v 27.2 l 23.4,13.6 23.4,-13.6 v -27.2 l -23.4,-13.6 z m 0,0"
     id="path144"
     inkscape:connector-curvature="0"
     style="fill:#e6be34" />
  <path
     d="m 89.4,133.69999 18.2,10.6 v 21.2 l -18.2,10.6 -18.2,-10.6 v -21.2 l 18.2,-10.6 m -19.3,10 v 22.4 l 19.3,11.2 19.3,-11.2 v -22.4 l -19.3,-11.2 z m 0,0"
     id="path146"
     inkscape:connector-curvature="0"
     style="fill:#e6be34" />
  <path
     d="m 87.8,152.29999 c 0.3,-0.1 0.6,-0.4 0.6,-0.8 0,-3.3 0.4,-6 1,-6 0.6,0 1,2.7 1,6 0,0.4 0.2,0.7 0.6,0.9 0.2,0.1 0.6,0.1 0.8,-0.1 3,-3.4 5.7,-7.6 2.1,-9.8 -0.6,-0.4 -1.2,-1 -1.4,-1.7 -0.4,-1.4 -1.4,-2.3 -3.1,-2.3 -1.8,0 -2.7,1 -3,2.3 -0.3,0.7 -0.9,1.3 -1.5,1.7 -3.6,2.2 -0.9,6.4 2,9.8 0.3,0.2 0.7,0.2 1,0 m 15.7,-0.5 a 3,3 0 0 1 -1.7,-1.4 c -2.3,-3.5 -6.5,-0.8 -9.9,2 a 1,1 0 0 0 0,1 c 0.1,0.3 0.5,0.5 0.8,0.5 3.4,0 6,0.5 6,1 0,0.6 -2.6,1 -6,1 a 1,1 0 0 0 -0.9,0.6 c -0.1,0.2 -0.1,0.6 0.2,0.8 3.3,3 7.5,5.6 9.8,2.1 0.4,-0.6 1,-1.2 1.7,-1.4 1.4,-0.4 2.3,-1.4 2.3,-3.1 0,-1.7 -1,-2.7 -2.3,-3 m -12.6,5.5 a 1,1 0 0 0 -0.6,1 c 0,3.2 -0.4,5.9 -1,5.9 -0.6,0 -1,-2.7 -1,-6 a 1,1 0 0 0 -0.6,-0.9 1,1 0 0 0 -0.9,0.1 c -2.9,3.4 -5.6,7.6 -2,9.8 0.6,0.4 1.2,1 1.4,1.7 0.4,1.4 1.3,2.3 3.1,2.3 1.7,0 2.7,-1 3,-2.3 0.3,-0.7 0.9,-1.3 1.5,-1.7 3.6,-2.2 0.8,-6.4 -2,-9.8 a 1,1 0 0 0 -1,0 m -4.1,-1 a 1,1 0 0 0 -0.8,-0.6 c -3.4,0 -6,-0.4 -6,-1 0,-0.5 2.6,-1 6,-1 0.3,0 0.6,-0.2 0.8,-0.5 a 1,1 0 0 0 0,-1 c -3.4,-2.8 -7.6,-5.5 -9.9,-2 -0.4,0.6 -1,1.2 -1.7,1.4 -1.4,0.4 -2.3,1.4 -2.3,3.1 0,1.7 1,2.7 2.3,3 0.7,0.3 1.3,0.9 1.7,1.5 2.3,3.5 6.5,0.8 9.9,-2 a 1,1 0 0 0 0,-1 m 2.6,-3.1 c -1,0 -1.7,0.7 -1.7,1.6 a 1.7,1.7 0 0 0 3.4,0 c 0,-1 -0.8,-1.7 -1.7,-1.7"
     id="path148"
     inkscape:connector-curvature="0"
     style="fill:#e6be34" />
  <path
     d="m 111.7,141.89999 22.4,-13 22.3,13 v 26 l -22.3,13 -22.4,-13 z m 0,0"
     id="path150"
     inkscape:connector-curvature="0"
     style="fill:#221815" />
  <path
     d="m 134.1,130.09999 21.3,12.4 v 24.8 l -21.3,12.4 -21.3,-12.4 v -24.8 l 21.3,-12.4 m -23.4,11.2 v 27.2 l 23.4,13.6 23.4,-13.6 v -27.2 l -23.4,-13.6 z m 0,0"
     id="path152"
     inkscape:connector-curvature="0"
     style="fill:#e6be34" />
  <path
     d="m 134.1,133.69999 18.1,10.6 v 21.2 l -18,10.6 -18.2,-10.6 v -21.2 l 18.2,-10.6 m -19.3,10 v 22.4 l 19.3,11.2 19.2,-11.2 v -22.4 l -19.2,-11.2 z m 0,0"
     id="path154"
     inkscape:connector-curvature="0"
     style="fill:#e6be34" />
  <path
     d="m 132.5,152.29999 c 0.3,-0.1 0.6,-0.4 0.6,-0.8 0,-3.3 0.4,-6 1,-6 0.5,0 1,2.7 1,6 0,0.4 0.2,0.7 0.5,0.9 0.3,0.1 0.7,0.1 1,-0.1 2.8,-3.4 5.6,-7.6 2,-9.8 -0.6,-0.4 -1.2,-1 -1.4,-1.7 -0.4,-1.4 -1.4,-2.3 -3.1,-2.3 -1.8,0 -2.7,1 -3.1,2.3 -0.2,0.7 -0.8,1.3 -1.4,1.7 -3.6,2.2 -0.9,6.4 2,9.8 0.3,0.2 0.6,0.2 1,0 m 15.7,-0.5 a 3,3 0 0 1 -1.7,-1.4 c -2.3,-3.5 -6.5,-0.8 -9.9,2 a 1,1 0 0 0 0,1 c 0.1,0.3 0.5,0.5 0.8,0.5 3.4,0 6,0.5 6,1 0,0.6 -2.6,1 -6,1 a 1,1 0 0 0 -0.9,0.6 c -0.1,0.2 -0.1,0.6 0.1,0.8 3.4,3 7.6,5.6 9.9,2.1 0.4,-0.6 1,-1.2 1.7,-1.4 1.4,-0.4 2.3,-1.4 2.3,-3.1 0,-1.7 -1,-2.7 -2.3,-3 m -12.7,5.5 a 1,1 0 0 0 -0.5,1 c 0,3.2 -0.5,5.9 -1,5.9 -0.6,0 -1,-2.7 -1,-6 a 1,1 0 0 0 -0.6,-0.9 1,1 0 0 0 -0.9,0.1 c -2.9,3.4 -5.6,7.6 -2,9.8 0.6,0.4 1.2,1 1.4,1.7 0.4,1.4 1.3,2.3 3,2.3 1.8,0 2.8,-1 3.2,-2.3 0.2,-0.7 0.8,-1.3 1.4,-1.7 3.6,-2.2 0.8,-6.4 -2,-9.8 a 1,1 0 0 0 -1,0 m -4.1,-1 a 1,1 0 0 0 -0.9,-0.6 c -3.3,0 -6,-0.4 -6,-1 0,-0.5 2.7,-1 6,-1 0.4,0 0.7,-0.2 1,-0.5 0.1,-0.3 0,-0.7 -0.2,-1 -3.3,-2.8 -7.6,-5.5 -9.8,-2 -0.4,0.6 -1,1.2 -1.7,1.4 -1.4,0.4 -2.3,1.4 -2.3,3.1 0,1.7 0.9,2.7 2.3,3 0.7,0.3 1.3,0.9 1.7,1.5 2.2,3.5 6.5,0.8 9.8,-2 0.3,-0.3 0.3,-0.7 0.1,-1 m 2.6,-3.1 c -1,0 -1.7,0.7 -1.7,1.6 a 1.7,1.7 0 0 0 3.4,0 c 0,-1 -0.8,-1.7 -1.7,-1.7"
     id="path156"
     inkscape:connector-curvature="0"
     style="fill:#e6be34" />
  <path
     d="m 156.4,167.89999 22.4,13 v -52 l -22.4,13 z m 0,0"
     id="path158"
     inkscape:connector-curvature="0"
     style="fill:#366f8a" />
  <path
     d="m 155.4,168.49999 23.4,13.6 v -2.4 l -21.3,-12.4 v -24.8 l 21.3,-12.4 v -2.4 l -23.4,13.6 z m 0,0"
     id="path160"
     inkscape:connector-curvature="0"
     style="fill:#e6be34" />
  <path
     d="m 159.5,166.09999 19.3,11.2 v -1.2 l -18.2,-10.6 v -21.2 l 18.2,-10.6 v -1.2 l -19.3,11.2 z m 0,0"
     id="path162"
     inkscape:connector-curvature="0"
     style="fill:#e6be34" />
  <path
     d="m 175.7,140.79999 c -0.2,0.7 -0.8,1.3 -1.4,1.7 -3.6,2.2 -0.9,6.4 2,9.8 0.3,0.2 0.6,0.2 1,0 0.2,-0.1 0.5,-0.4 0.5,-0.8 0,-3.3 0.4,-6 1,-6 v -7 c -1.8,0 -2.7,1 -3.1,2.3 m 2.1,17.5 a 1,1 0 0 0 -0.6,-0.9 1,1 0 0 0 -0.9,0.1 c -2.9,3.4 -5.6,7.6 -2,9.8 0.6,0.4 1.2,1 1.4,1.7 0.4,1.4 1.3,2.3 3,2.3 v -7 c -0.5,0 -1,-2.7 -1,-6 m -1.5,-1.8 a 1,1 0 0 0 -0.9,-0.6 c -3.3,0 -6,-0.4 -6,-1 0,-0.5 2.7,-1 6,-1 0.4,0 0.7,-0.2 1,-0.5 0.1,-0.3 0,-0.7 -0.2,-1 -3.3,-2.8 -7.6,-5.5 -9.8,-2 -0.4,0.6 -1,1.2 -1.7,1.4 -1.4,0.4 -2.3,1.4 -2.3,3.1 0,1.7 0.9,2.7 2.3,3 0.7,0.3 1.3,0.9 1.7,1.5 2.2,3.5 6.5,0.8 9.8,-2 0.3,-0.3 0.3,-0.7 0.1,-1 m 1,-1.5 c 0,1 0.7,1.7 1.6,1.7 v -3.4 c -1,0 -1.7,0.8 -1.7,1.7"
     id="path164"
     inkscape:connector-curvature="0"
     style="fill:#e6be34" />
  <path
     d="m 22.4,141.89999 -22.4,-13 v 52 l 22.4,-13 z m 0,0"
     id="path166"
     inkscape:connector-curvature="0"
     style="fill:#366f8a" />
  <path
     d="m 23.4,141.29999 -23.4,-13.6 v 2.4 l 21.3,12.4 v 24.8 l -21.3,12.4 v 2.4 l 23.4,-13.6 z m 0,0"
     id="path168"
     inkscape:connector-curvature="0"
     style="fill:#e6be34" />
  <path
     d="m 19.2,143.69999 -19.2,-11.2 v 1.2 l 18.2,10.6 v 21.2 l -18.2,10.6 v 1.2 l 19.3,-11.2 z m 0,0"
     id="path170"
     inkscape:connector-curvature="0"
     style="fill:#e6be34" />
  <path
     d="m 1,151.49999 c 0,0.4 0.3,0.7 0.6,0.9 0.3,0.1 0.6,0.1 0.9,-0.1 2.9,-3.4 5.6,-7.6 2,-9.8 -0.6,-0.4 -1.2,-1 -1.4,-1.7 -0.4,-1.4 -1.3,-2.3 -3,-2.3 v 7 c 0.5,0 1,2.7 1,6 m 13.1,0.3 a 3,3 0 0 1 -1.7,-1.4 c -2.3,-3.5 -6.5,-0.8 -9.8,2 -0.3,0.3 -0.3,0.7 -0.1,1 0.2,0.3 0.5,0.5 0.8,0.5 3.4,0 6,0.5 6,1 0,0.6 -2.6,1 -6,1 a 1,1 0 0 0 -0.8,0.6 c -0.2,0.2 -0.2,0.6 0,0.8 3.4,3 7.7,5.6 9.9,2.1 0.4,-0.6 1,-1.2 1.7,-1.4 1.4,-0.4 2.3,-1.4 2.3,-3.1 0,-1.7 -1,-2.7 -2.3,-3 m -11.1,17.1 c 0.2,-0.7 0.8,-1.3 1.4,-1.7 3.6,-2.2 0.9,-6.4 -2,-9.8 -0.3,-0.2 -0.6,-0.2 -1,0 a 1,1 0 0 0 -0.5,0.8 c 0,3.3 -0.4,6 -1,6 v 7 c 1.8,0 2.7,-1 3,-2.3 m -1.3,-14.1 c 0,-1 -0.8,-1.7 -1.7,-1.7 v 3.4 c 1,0 1.7,-0.8 1.7,-1.7"
     id="path172"
     inkscape:connector-curvature="0"
     style="fill:#e6be34" />
  <path
     d="m 22.4,141.89999 22.3,-13 22.3,13 v 26 l -22.3,13 -22.3,-13 z m 0,0"
     id="path174"
     inkscape:connector-curvature="0"
     style="fill:#f9d6d6" />
  <path
     d="m 44.7,130.09999 21.3,12.4 v 24.8 l -21.3,12.4 -21.3,-12.4 v -24.8 l 21.3,-12.4 m -23.4,11.2 v 27.2 l 23.4,13.6 23.4,-13.6 v -27.2 l -23.4,-13.6 z m 0,0"
     id="path176"
     inkscape:connector-curvature="0"
     style="fill:#e6be34" />
  <path
     d="m 44.7,133.69999 18.2,10.6 v 21.2 l -18.2,10.6 -18.2,-10.6 v -21.2 l 18.2,-10.6 m -19.3,10 v 22.4 l 19.3,11.2 19.3,-11.2 v -22.4 l -19.3,-11.2 z m 0,0"
     id="path178"
     inkscape:connector-curvature="0"
     style="fill:#e6be34" />
  <path
     d="m 43.2,152.29999 c 0.3,-0.1 0.5,-0.4 0.5,-0.8 0,-3.3 0.4,-6 1,-6 0.6,0 1,2.7 1,6 0,0.4 0.2,0.7 0.6,0.9 0.3,0.1 0.6,0.1 0.8,-0.1 3,-3.4 5.7,-7.6 2.1,-9.8 -0.6,-0.4 -1.2,-1 -1.4,-1.7 -0.4,-1.4 -1.3,-2.3 -3.1,-2.3 -1.8,0 -2.7,1 -3,2.3 -0.3,0.7 -0.9,1.3 -1.5,1.7 -3.6,2.2 -0.8,6.4 2,9.8 0.3,0.2 0.7,0.2 1,0 m 15.7,-0.5 a 3,3 0 0 1 -1.7,-1.4 c -2.3,-3.5 -6.5,-0.8 -9.9,2 a 1,1 0 0 0 0,1 c 0.1,0.3 0.5,0.5 0.8,0.5 3.4,0 6,0.5 6,1 0,0.6 -2.6,1 -6,1 a 1,1 0 0 0 -0.8,0.6 c -0.2,0.2 -0.2,0.6 0,0.8 3.4,3 7.6,5.6 9.9,2.1 0.4,-0.6 1,-1.2 1.7,-1.4 1.4,-0.4 2.3,-1.4 2.3,-3.1 0,-1.7 -1,-2.7 -2.3,-3 m -12.7,5.5 a 1,1 0 0 0 -0.5,1 c 0,3.2 -0.4,5.9 -1,5.9 -0.6,0 -1,-2.7 -1,-6 a 1,1 0 0 0 -0.6,-0.9 c -0.2,-0.1 -0.6,-0.1 -0.8,0.1 -3,3.4 -5.7,7.6 -2.1,9.8 0.6,0.4 1.2,1 1.4,1.7 0.4,1.4 1.3,2.3 3.1,2.3 1.8,0 2.7,-1 3,-2.3 0.3,-0.7 0.9,-1.3 1.5,-1.7 3.6,-2.2 0.8,-6.4 -2,-9.8 a 1,1 0 0 0 -1,0 m -4,-1 a 1,1 0 0 0 -1,-0.6 c -3.3,0 -6,-0.4 -6,-1 0,-0.5 2.7,-1 6,-1 0.4,0 0.8,-0.2 1,-0.5 0.1,-0.3 0,-0.7 -0.2,-1 -3.3,-2.8 -7.5,-5.5 -9.8,-2 -0.4,0.6 -1,1.2 -1.7,1.4 -1.4,0.4 -2.3,1.4 -2.3,3.1 0,1.7 1,2.7 2.3,3 0.7,0.3 1.3,0.9 1.7,1.5 2.3,3.5 6.5,0.8 9.9,-2 a 1,1 0 0 0 0,-1 m 2.6,-3.1 c -1,0 -1.7,0.7 -1.7,1.6 a 1.7,1.7 0 0 0 3.4,0 c 0,-1 -0.8,-1.7 -1.7,-1.7"
     id="path180"
     inkscape:connector-curvature="0"
     style="fill:#e6be34" />
  <path
     d="M 89.4,102.9 111.7,89.899992 134.1,102.9 v 26 l -22.4,13 -22.3,-13 z m 0,0"
     id="path182"
     inkscape:connector-curvature="0"
     style="fill:#bf1927" />
  <path
     d="M 111.7,91.099992 133,103.5 v 24.8 L 111.7,140.7 90.4,128.3 V 103.5 L 111.7,91.099992 M 88.4,102.3 v 27.2 l 23.3,13.6 23.4,-13.6 V 102.3 L 111.7,88.699992 Z m 0,0"
     id="path184"
     inkscape:connector-curvature="0"
     style="fill:#e6be34" />
  <path
     d="M 111.7,94.699992 130,105.3 v 21.2 L 111.7,137.1 93.5,126.5 V 105.3 L 111.7,94.699992 M 92.5,104.7 v 22.4 l 19.2,11.2 19.3,-11.2 V 104.7 L 111.7,93.499992 Z m 0,0"
     id="path186"
     inkscape:connector-curvature="0"
     style="fill:#e6be34" />
  <path
     d="m 110.2,113.29999 c 0.3,-0.1 0.5,-0.4 0.5,-0.8 0,-3.3 0.5,-6 1,-6 0.6,0 1,2.7 1,6 0,0.4 0.3,0.7 0.6,0.9 0.3,0.2 0.7,0.1 0.9,-0.1 2.9,-3.4 5.6,-7.5 2,-9.8 -0.6,-0.4 -1.2,-1 -1.4,-1.7 -0.4,-1.4 -1.3,-2.199998 -3,-2.199998 -1.8,0 -2.7,0.799998 -3.1,2.199998 -0.3,0.8 -0.8,1.3 -1.5,1.7 -3.5,2.3 -0.8,6.5 2.1,9.8 0.2,0.3 0.6,0.3 0.9,0 m 15.8,-0.4 c -0.8,-0.3 -1.4,-0.8 -1.8,-1.5 -2.2,-3.5 -6.4,-0.8 -9.8,2.1 -0.3,0.2 -0.3,0.6 -0.1,0.9 0.2,0.3 0.5,0.5 0.9,0.5 3.3,0 6,0.5 6,1 0,0.6 -2.7,1 -6,1 a 1,1 0 0 0 -0.9,0.6 c -0.2,0.3 -0.2,0.6 0.1,0.9 3.4,2.8 7.6,5.5 9.8,2 0.4,-0.6 1,-1.2 1.8,-1.4 1.3,-0.4 2.2,-1.3 2.2,-3 0,-1.8 -0.9,-2.7 -2.3,-3.1 m -12.6,5.6 a 1,1 0 0 0 -0.5,0.8 c 0,3.4 -0.5,6 -1,6 -0.6,0 -1,-2.6 -1,-6 a 1,1 0 0 0 -0.6,-0.8 1,1 0 0 0 -1,0 c -2.8,3.4 -5.5,7.6 -2,9.8 0.7,0.4 1.2,1 1.5,1.7 0.4,1.4 1.3,2.3 3,2.3 1.8,0 2.7,-0.9 3.1,-2.3 a 3,3 0 0 1 1.5,-1.7 c 3.5,-2.2 0.8,-6.4 -2.1,-9.7 -0.2,-0.3 -0.6,-0.3 -0.9,-0.1 m -4.1,-1 a 1,1 0 0 0 -0.9,-0.6 c -3.3,0 -6,-0.4 -6,-1 0,-0.5 2.7,-1 6,-1 0.4,0 0.7,-0.2 0.9,-0.5 0.2,-0.3 0.1,-0.7 -0.1,-0.9 -3.4,-2.9 -7.6,-5.6 -9.9,-2 a 4,4 0 0 1 -1.7,1.4 c -1.3,0.4 -2.2,1.3 -2.2,3 0,1.8 0.9,2.7 2.2,3.1 0.8,0.2 1.3,0.8 1.7,1.4 2.3,3.6 6.5,0.8 9.9,-2 0.2,-0.3 0.3,-0.6 0,-1 m 2.6,-3.1 c -0.9,0 -1.6,0.7 -1.6,1.6 0,1 0.7,1.7 1.6,1.7 1,0 1.7,-0.8 1.7,-1.7 0,-0.9 -0.7,-1.6 -1.7,-1.6"
     id="path188"
     inkscape:connector-curvature="0"
     style="fill:#e6be34" />
  <path
     d="M 134.1,102.9 156.4,89.899992 178.8,102.9 v 26 l -22.4,13 -22.3,-13 z m 0,0"
     id="path190"
     inkscape:connector-curvature="0"
     style="fill:#221815" />
  <path
     d="m 177.7,128.3 -21.3,12.4 -21.2,-12.4 V 103.5 L 156.5,91.099992 177.8,103.5 Z m -44.7,-26 v 27.2 l 23.4,13.6 22.4,-13 V 101.7 L 156.4,88.699992 Z m 0,0"
     id="path192"
     inkscape:connector-curvature="0"
     style="fill:#e6be34" />
  <path
     d="M 156.4,94.699992 174.6,105.3 v 21.2 l -18.2,10.6 -18.2,-10.6 V 105.3 L 156.4,94.699992 M 137.2,104.7 v 22.4 l 19.2,11.2 19.3,-11.2 V 104.7 L 156.4,93.499992 Z m 0,0"
     id="path194"
     inkscape:connector-curvature="0"
     style="fill:#e6be34" />
  <path
     d="m 154.9,113.29999 c 0.3,-0.1 0.5,-0.4 0.5,-0.8 0,-3.3 0.5,-6 1,-6 0.6,0 1,2.7 1,6 0,0.4 0.3,0.7 0.6,0.9 0.3,0.2 0.7,0.1 0.9,-0.1 2.9,-3.4 5.6,-7.5 2,-9.8 -0.6,-0.4 -1.2,-1 -1.4,-1.7 -0.4,-1.4 -1.3,-2.199998 -3,-2.199998 -1.8,0 -2.8,0.799998 -3.2,2.199998 -0.2,0.8 -0.7,1.3 -1.4,1.7 -3.5,2.3 -0.8,6.5 2.1,9.8 0.2,0.3 0.6,0.3 0.9,0 m 15.7,-0.4 c -0.7,-0.3 -1.3,-0.8 -1.7,-1.5 -2.2,-3.5 -6.5,-0.8 -9.8,2.1 -0.3,0.2 -0.3,0.6 -0.1,0.9 0.2,0.3 0.5,0.5 0.9,0.5 3.3,0 6,0.5 6,1 0,0.6 -2.7,1 -6,1 a 1,1 0 0 0 -1,0.6 c 0,0.3 0,0.6 0.2,0.9 3.4,2.8 7.6,5.5 9.8,2 0.4,-0.6 1,-1.2 1.7,-1.4 1.4,-0.4 2.3,-1.3 2.3,-3 0,-1.8 -0.9,-2.7 -2.3,-3.1 m -12.6,5.6 a 1,1 0 0 0 -0.6,0.8 c 0,3.4 -0.4,6 -1,6 -0.5,0 -1,-2.6 -1,-6 a 1,1 0 0 0 -0.5,-0.8 1,1 0 0 0 -1,0 c -2.8,3.4 -5.5,7.6 -2,9.8 a 3,3 0 0 1 1.4,1.7 c 0.4,1.4 1.4,2.3 3.1,2.3 1.8,0 2.7,-0.9 3.1,-2.3 a 3,3 0 0 1 1.5,-1.7 c 3.5,-2.2 0.8,-6.4 -2.1,-9.7 -0.2,-0.3 -0.6,-0.3 -0.9,-0.1 m -4.1,-1 a 1,1 0 0 0 -0.9,-0.6 c -3.3,0 -6,-0.4 -6,-1 0,-0.5 2.7,-1 6,-1 0.4,0 0.7,-0.2 0.9,-0.5 0.2,-0.3 0.1,-0.7 -0.1,-0.9 -3.4,-2.9 -7.6,-5.6 -9.9,-2 a 4,4 0 0 1 -1.7,1.4 c -1.4,0.4 -2.2,1.3 -2.2,3 0,1.8 0.8,2.7 2.2,3.1 0.8,0.2 1.3,0.8 1.7,1.4 2.3,3.6 6.5,0.8 9.9,-2 0.2,-0.3 0.2,-0.6 0,-1 m 2.6,-3.1 c -0.9,0 -1.6,0.7 -1.6,1.6 0,1 0.7,1.7 1.6,1.7 1,0 1.7,-0.8 1.7,-1.7 0,-0.9 -0.7,-1.6 -1.7,-1.6 m 21.3,15.2 1,0.6 v -28.4 l -1,0.6 z m -176.7,-27.2 -1,-0.6 v 28.4 l 1,-0.6 z m 0,0"
     id="path196"
     inkscape:connector-curvature="0"
     style="fill:#e6be34" />
  <path
     d="M 0,102.9 22.4,89.899992 44.7,102.9 v 26 l -22.3,13 -22.4,-13 z m 0,0"
     id="path198"
     inkscape:connector-curvature="0"
     style="fill:#366f8a" />
  <path
     d="M 1,103.5 22.4,91.099992 43.7,103.5 v 24.8 L 22.4,140.7 1,128.3 Z m 44.7,26 V 102.3 L 22.4,88.699992 0,101.7 v 28.4 l 22.4,13 z m 0,0"
     id="path200"
     inkscape:connector-curvature="0"
     style="fill:#e6be34" />
  <path
     d="M 22.4,94.699992 40.6,105.3 v 21.2 L 22.4,137.1 4.1,126.5 V 105.3 L 22.4,94.699992 M 3.1,104.7 v 22.4 l 19.3,11.2 19.2,-11.2 V 104.7 L 22.4,93.499992 Z m 0,0"
     id="path202"
     inkscape:connector-curvature="0"
     style="fill:#e6be34" />
  <path
     d="m 20.8,113.29999 c 0.3,-0.1 0.5,-0.4 0.5,-0.8 0,-3.3 0.5,-6 1,-6 0.6,0 1,2.7 1,6 0,0.4 0.3,0.7 0.6,0.9 0.3,0.2 0.7,0.1 0.9,-0.1 3,-3.4 5.6,-7.5 2,-9.8 a 4,4 0 0 1 -1.4,-1.7 c -0.4,-1.4 -1.3,-2.199998 -3,-2.199998 -1.8,0 -2.7,0.799998 -3.1,2.199998 -0.3,0.8 -0.8,1.3 -1.5,1.7 -3.5,2.3 -0.8,6.5 2.1,9.8 0.2,0.3 0.6,0.3 0.9,0 m 15.8,-0.4 c -0.8,-0.3 -1.3,-0.8 -1.8,-1.5 -2.2,-3.5 -6.4,-0.8 -9.8,2.1 -0.3,0.2 -0.3,0.6 0,0.9 0.1,0.3 0.4,0.5 0.8,0.5 3.3,0 6,0.5 6,1 0,0.6 -2.7,1 -6,1 a 1,1 0 0 0 -0.9,0.6 c -0.2,0.3 -0.1,0.6 0.1,0.9 3.4,2.8 7.6,5.5 9.8,2 0.5,-0.6 1,-1.2 1.8,-1.4 1.3,-0.4 2.2,-1.3 2.2,-3 0,-1.8 -0.9,-2.7 -2.2,-3.1 m -12.7,5.6 a 1,1 0 0 0 -0.5,0.8 c 0,3.4 -0.5,6 -1,6 -0.6,0 -1,-2.6 -1,-6 a 1,1 0 0 0 -0.6,-0.8 c -0.3,-0.2 -0.7,-0.2 -0.9,0 -2.9,3.4 -5.6,7.6 -2,9.8 a 4,4 0 0 1 1.4,1.7 c 0.4,1.4 1.3,2.3 3,2.3 1.8,0 2.7,-0.9 3.1,-2.3 0.3,-0.7 0.8,-1.3 1.5,-1.7 3.5,-2.2 0.8,-6.4 -2.1,-9.7 -0.2,-0.3 -0.6,-0.3 -0.9,-0.1 m -4.1,-1 a 1,1 0 0 0 -0.9,-0.6 c -3.3,0 -6,-0.4 -6,-1 0,-0.5 2.7,-1 6,-1 0.4,0 0.7,-0.2 0.9,-0.5 0.2,-0.3 0.2,-0.7 -0.1,-0.9 -3.4,-2.9 -7.6,-5.6 -9.8,-2 -0.4,0.6 -1,1.1 -1.8,1.4 -1.3,0.4 -2.2,1.3 -2.2,3 0,1.8 0.9,2.7 2.2,3.1 0.8,0.2 1.3,0.8 1.8,1.4 2.2,3.6 6.4,0.8 9.8,-2 0.3,-0.3 0.3,-0.6 0,-1 m 2.7,-3.1 c -1,0 -1.7,0.7 -1.7,1.6 0,1 0.7,1.7 1.7,1.7 0.9,0 1.6,-0.8 1.6,-1.7 0,-0.9 -0.7,-1.6 -1.6,-1.6"
     id="path204"
     inkscape:connector-curvature="0"
     style="fill:#e6be34" />
  <path
     d="M 44.7,102.9 67,89.899992 89.4,102.9 v 26 l -22.4,13 -22.3,-13 z m 0,0"
     id="path206"
     inkscape:connector-curvature="0"
     style="fill:#f9d6d6" />
  <path
     d="M 67,91.099992 88.4,103.5 v 24.8 L 67,140.7 45.7,128.3 V 103.5 L 67,91.099992 M 43.7,102.3 v 27.2 L 67,143.1 90.4,129.5 V 102.3 L 67,88.699992 Z m 0,0"
     id="path208"
     inkscape:connector-curvature="0"
     style="fill:#e6be34" />
  <path
     d="M 67,94.699992 85.3,105.3 v 21.2 L 67,137.1 48.8,126.5 V 105.3 L 67,94.699992 M 47.8,104.7 v 22.4 L 67,138.3 86.3,127.1 V 104.7 L 67,93.499992 Z m 0,0"
     id="path210"
     inkscape:connector-curvature="0"
     style="fill:#e6be34" />
  <path
     d="m 65.5,113.29999 c 0.3,-0.1 0.5,-0.4 0.5,-0.8 0,-3.3 0.5,-6 1,-6 0.6,0 1,2.7 1,6 0,0.4 0.3,0.7 0.6,0.9 0.3,0.2 0.7,0.1 0.9,-0.1 2.9,-3.4 5.6,-7.5 2,-9.8 a 4,4 0 0 1 -1.4,-1.7 c -0.4,-1.4 -1.3,-2.199998 -3,-2.199998 -1.8,0 -2.7,0.799998 -3.1,2.199998 -0.3,0.8 -0.8,1.3 -1.5,1.7 -3.5,2.3 -0.8,6.5 2.1,9.8 0.2,0.3 0.6,0.3 0.9,0 m 15.7,-0.4 a 4,4 0 0 1 -1.7,-1.5 c -2.2,-3.5 -6.4,-0.8 -9.8,2.1 -0.3,0.2 -0.3,0.6 0,0.9 0,0.3 0.4,0.5 0.8,0.5 3.3,0 6,0.5 6,1 0,0.6 -2.7,1 -6,1 a 1,1 0 0 0 -0.9,0.6 c -0.2,0.3 -0.1,0.6 0.1,0.9 3.4,2.8 7.6,5.5 9.8,2 0.5,-0.6 1,-1.2 1.8,-1.4 1.3,-0.4 2.2,-1.3 2.2,-3 0,-1.8 -0.9,-2.7 -2.2,-3.1 m -12.7,5.6 a 1,1 0 0 0 -0.5,0.8 c 0,3.4 -0.5,6 -1,6 -0.6,0 -1,-2.6 -1,-6 a 1,1 0 0 0 -0.6,-0.8 c -0.3,-0.2 -0.7,-0.2 -0.9,0 -3,3.4 -5.6,7.6 -2,9.8 a 4,4 0 0 1 1.4,1.7 c 0.4,1.4 1.3,2.3 3,2.3 1.8,0 2.7,-0.9 3.1,-2.3 0.3,-0.7 0.8,-1.3 1.5,-1.7 3.5,-2.2 0.8,-6.4 -2.1,-9.7 -0.2,-0.3 -0.6,-0.3 -0.9,-0.1 m -4.1,-1 a 1,1 0 0 0 -0.9,-0.6 c -3.3,0 -6,-0.4 -6,-1 0,-0.5 2.7,-1 6,-1 0.4,0 0.7,-0.2 0.9,-0.5 0.2,-0.3 0.1,-0.7 -0.1,-0.9 -3.4,-2.9 -7.6,-5.6 -9.8,-2 -0.5,0.6 -1,1.1 -1.8,1.4 -1.3,0.4 -2.2,1.3 -2.2,3 0,1.8 0.9,2.7 2.2,3.1 0.8,0.2 1.3,0.8 1.8,1.4 2.2,3.6 6.4,0.8 9.8,-2 0.3,-0.3 0.3,-0.6 0,-1 m 2.6,-3.1 c -0.9,0 -1.6,0.7 -1.6,1.6 0,1 0.7,1.7 1.6,1.7 1,0 1.7,-0.8 1.7,-1.7 0,-0.9 -0.7,-1.6 -1.7,-1.6"
     id="path212"
     inkscape:connector-curvature="0"
     style="fill:#e6be34" />
  <path
     d="m 111.7,63.999992 22.4,-13 22.3,13 v 26 L 134.1,103 111.7,89.999992 Z m 0,0"
     id="path214"
     inkscape:connector-curvature="0"
     style="fill:#bf1927" />
  <path
     d="m 134.1,52.199992 21.3,12.4 v 24.7 L 134.1,101.7 112.8,89.299992 v -24.7 l 21.3,-12.4 m -23.4,11.1 v 27.1 L 134.1,104 157.5,90.399992 v -27.1 l -23.4,-13.6 z m 0,0"
     id="path216"
     inkscape:connector-curvature="0"
     style="fill:#e6be34" />
  <path
     d="m 134.1,55.799992 18.1,10.5 v 21.1 l -18,10.7 -18.2,-10.6 v -21.1 l 18.2,-10.6 m -19.3,10 v 22.3 l 19.3,11.200004 19.2,-11.200004 v -22.3 l -19.2,-11.2 z m 0,0"
     id="path218"
     inkscape:connector-curvature="0"
     style="fill:#e6be34" />
  <path
     d="m 132.5,74.399992 c 0.3,-0.2 0.6,-0.5 0.6,-0.9 0,-3.3 0.4,-6 1,-6 0.5,0 1,2.7 1,6 0,0.4 0.2,0.7 0.5,1 0.3,0 0.7,0 1,-0.2 2.8,-3.3 5.6,-7.5 2,-9.8 -0.6,-0.4 -1.2,-1 -1.4,-1.7 -0.4,-1.3 -1.4,-2.2 -3.1,-2.2 -1.8,0 -2.7,0.9 -3.1,2.2 -0.2,0.8 -0.8,1.3 -1.4,1.7 -3.6,2.3 -0.9,6.5 2,9.8 0.3,0.3 0.6,0.3 1,0.1 m 15.7,-0.5 c -0.7,-0.2 -1.3,-0.8 -1.7,-1.4 -2.3,-3.6 -6.5,-0.9 -9.9,2 -0.2,0.2 -0.2,0.6 0,0.9 0.1,0.3 0.5,0.5 0.8,0.5 3.4,0 6,0.5 6,1 0,0.6 -2.6,1 -6,1 a 1,1 0 0 0 -0.9,0.6 c -0.1,0.3 -0.1,0.7 0.1,0.9 3.4,2.9 7.6,5.6 9.9,2 0.4,-0.6 1,-1.2 1.7,-1.4 1.4,-0.4 2.3,-1.3 2.3,-3 0,-1.8 -1,-2.7 -2.3,-3.1 m -12.7,5.6 a 1,1 0 0 0 -0.5,0.9 c 0,3.3 -0.5,6 -1,6 -0.6,0 -1,-2.7 -1,-6 a 1,1 0 0 0 -0.6,-1 c -0.3,0 -0.6,0 -0.9,0.2 -2.9,3.3 -5.6,7.5 -2,9.8 0.6,0.4 1.2,1 1.4,1.7 0.4,1.3 1.3,2.2 3,2.2 1.8,0 2.8,-0.9 3.2,-2.2 0.2,-0.8 0.8,-1.3 1.4,-1.7 3.6,-2.3 0.8,-6.5 -2,-9.8 a 0.8,0.8 0 0 0 -1,-0.1 m -4.1,-1 a 1,1 0 0 0 -0.9,-0.5 c -3.3,0 -6,-0.5 -6,-1 0,-0.6 2.7,-1 6,-1 0.4,0 0.7,-0.3 1,-0.6 a 1,1 0 0 0 -0.2,-0.9 c -3.3,-2.9 -7.6,-5.6 -9.8,-2 -0.4,0.6 -1,1.2 -1.7,1.4 -1.4,0.4 -2.3,1.3 -2.3,3 0,1.8 0.9,2.7 2.3,3.1 0.7,0.2 1.3,0.8 1.7,1.4 2.2,3.6 6.5,0.9 9.8,-2 0.3,-0.2 0.3,-0.6 0.1,-0.9 m 2.6,-3.2 c -1,0 -1.7,0.7 -1.7,1.7 0,0.9 0.8,1.6 1.7,1.6 1,0 1.7,-0.7 1.7,-1.6 0,-1 -0.8,-1.7 -1.7,-1.7"
     id="path220"
     inkscape:connector-curvature="0"
     style="fill:#e6be34" />
  <path
     d="m 156.4,63.999992 v 26 L 178.8,103 V 50.999992 Z m 0,0"
     id="path222"
     inkscape:connector-curvature="0"
     style="fill:#221815" />
  <path
     d="m 157.5,89.299992 v -24.7 l 21.3,-12.4 v -2.4 l -23.4,13.5 v 27.1 L 178.8,104 v -2.4 L 157.5,89.299992"
     id="path224"
     inkscape:connector-curvature="0"
     style="fill:#e6be34" />
  <path
     d="m 160.6,87.499992 v -21.1 l 18.2,-10.6 v -1.2 l -19.3,11.2 v 22.3 l 19.3,11.200004 v -1.200004 l -18.2,-10.6"
     id="path226"
     inkscape:connector-curvature="0"
     style="fill:#e6be34" />
  <path
     d="m 175.7,62.799992 c -0.2,0.8 -0.8,1.3 -1.4,1.7 -3.6,2.3 -0.9,6.5 2,9.8 0.3,0.3 0.6,0.3 1,0.1 0.2,-0.2 0.5,-0.5 0.5,-0.9 0,-3.3 0.4,-6 1,-6 v -7 c -1.8,0 -2.7,1 -3.1,2.3 m 2.1,17.5 a 1,1 0 0 0 -0.6,-0.8 c -0.3,-0.2 -0.6,-0.2 -0.9,0.1 -2.9,3.3 -5.6,7.5 -2,9.8 0.6,0.4 1.2,1 1.4,1.7 0.4,1.3 1.3,2.2 3,2.2 v -7 c -0.5,0 -1,-2.6 -1,-6 m -1.5,-1.8 a 1,1 0 0 0 -0.9,-0.5 c -3.3,0 -6,-0.5 -6,-1 0,-0.6 2.7,-1 6,-1 0.4,0 0.7,-0.3 1,-0.6 a 1,1 0 0 0 -0.2,-0.9 c -3.3,-2.9 -7.6,-5.6 -9.8,-2 -0.4,0.6 -1,1.2 -1.7,1.4 -1.4,0.4 -2.3,1.3 -2.3,3 0,1.8 0.9,2.7 2.3,3.1 0.7,0.2 1.3,0.8 1.7,1.4 2.2,3.6 6.5,0.9 9.8,-2 0.3,-0.2 0.3,-0.6 0.1,-0.9 m 1,-1.5 c 0,0.9 0.7,1.6 1.6,1.6 v -3.3 c -1,0 -1.7,0.7 -1.7,1.7"
     id="path228"
     inkscape:connector-curvature="0"
     style="fill:#e6be34" />
  <path
     d="m 22.4,63.999992 -22.4,-13 V 103 L 22.4,89.999992 Z m 0,0"
     id="path230"
     inkscape:connector-curvature="0"
     style="fill:#221815" />
  <path
     d="m 23.4,63.299992 -23.4,-13.5 v 2.4 l 21.3,12.4 v 24.7 L 0,101.7 v 2.4 L 23.4,90.499992 Z m 0,0"
     id="path232"
     inkscape:connector-curvature="0"
     style="fill:#e6be34" />
  <path
     d="m 19.2,65.799992 -19.2,-11.2 v 1.2 l 18.2,10.5 v 21.1 l -18.2,10.6 v 1.200004 L 19.3,87.999992 Z m 0,0"
     id="path234"
     inkscape:connector-curvature="0"
     style="fill:#e6be34" />
  <path
     d="m 1,73.499992 c 0,0.4 0.3,0.7 0.6,1 0.3,0 0.6,0 0.9,-0.2 2.9,-3.3 5.6,-7.5 2,-9.8 -0.6,-0.4 -1.2,-1 -1.4,-1.7 -0.4,-1.3 -1.3,-2.2 -3,-2.2 v 7 c 0.5,0 1,2.6 1,6 m 13.1,0.3 c -0.7,-0.2 -1.3,-0.8 -1.7,-1.4 -2.3,-3.6 -6.5,-0.9 -9.8,2 -0.3,0.2 -0.3,0.6 -0.1,0.9 0.2,0.3 0.5,0.5 0.8,0.5 3.4,0 6,0.5 6,1 0,0.6 -2.6,1 -6,1 a 1,1 0 0 0 -0.8,0.6 c -0.2,0.3 -0.2,0.7 0,0.9 3.4,2.9 7.7,5.6 9.9,2 0.4,-0.6 1,-1.2 1.7,-1.4 1.4,-0.4 2.3,-1.3 2.3,-3 0,-1.8 -1,-2.7 -2.3,-3.1 m -11.1,17.2 c 0.2,-0.8 0.8,-1.3 1.4,-1.7 3.6,-2.3 0.9,-6.5 -2,-9.8 -0.3,-0.3 -0.6,-0.3 -1,-0.1 a 1,1 0 0 0 -0.5,0.9 c 0,3.3 -0.4,6 -1,6 v 7 c 1.8,0 2.7,-1 3,-2.3 m -1.3,-14.1 c 0,-1 -0.8,-1.7 -1.7,-1.7 v 3.3 c 1,0 1.7,-0.7 1.7,-1.6"
     id="path236"
     inkscape:connector-curvature="0"
     style="fill:#e6be34" />
  <path
     d="m 22.4,63.999992 22.3,-13 22.3,13 v 26 L 44.7,103 22.4,89.999992 Z m 0,0"
     id="path238"
     inkscape:connector-curvature="0"
     style="fill:#366f8a" />
  <path
     d="m 44.7,52.199992 21.3,12.4 v 24.7 L 44.7,101.7 23.4,89.299992 v -24.7 l 21.3,-12.4 m -23.4,11.1 v 27.1 L 44.7,104 68.1,90.399992 v -27.1 l -23.4,-13.6 z m 0,0"
     id="path240"
     inkscape:connector-curvature="0"
     style="fill:#e6be34" />
  <path
     d="m 44.7,55.799992 18.2,10.6 v 21.1 l -18.2,10.6 -18.2,-10.6 v -21.1 l 18.2,-10.6 m -19.3,10 v 22.3 L 44.7,99.299996 64,88.099992 v -22.3 l -19.3,-11.2 z m 0,0"
     id="path242"
     inkscape:connector-curvature="0"
     style="fill:#e6be34" />
  <path
     d="m 43.2,74.399992 c 0.3,-0.2 0.5,-0.5 0.5,-0.9 0,-3.3 0.4,-6 1,-6 0.6,0 1,2.7 1,6 0,0.4 0.2,0.7 0.6,1 0.3,0 0.6,0 0.8,-0.2 3,-3.3 5.7,-7.5 2.1,-9.8 -0.6,-0.4 -1.2,-1 -1.4,-1.7 -0.4,-1.3 -1.3,-2.2 -3.1,-2.2 -1.8,0 -2.7,0.9 -3,2.2 -0.3,0.8 -0.9,1.3 -1.5,1.7 -3.6,2.3 -0.8,6.5 2,9.8 0.3,0.3 0.7,0.3 1,0.1 m 15.7,-0.5 c -0.7,-0.2 -1.3,-0.8 -1.7,-1.4 -2.3,-3.6 -6.5,-0.9 -9.9,2 -0.2,0.2 -0.2,0.6 0,0.9 0.1,0.3 0.5,0.5 0.8,0.5 3.4,0 6,0.5 6,1 0,0.6 -2.6,1 -6,1 a 1,1 0 0 0 -0.8,0.6 c -0.2,0.3 -0.2,0.7 0,0.9 3.4,2.9 7.6,5.6 9.9,2 0.4,-0.6 1,-1.2 1.7,-1.4 1.4,-0.4 2.3,-1.3 2.3,-3 0,-1.8 -1,-2.7 -2.3,-3.1 m -12.7,5.6 a 1,1 0 0 0 -0.5,0.9 c 0,3.3 -0.4,6 -1,6 -0.6,0 -1,-2.7 -1,-6 a 1,1 0 0 0 -0.6,-1 c -0.2,0 -0.6,0 -0.8,0.2 -3,3.3 -5.7,7.5 -2.1,9.8 0.6,0.4 1.2,1 1.4,1.7 0.4,1.3 1.3,2.2 3.1,2.2 1.8,0 2.7,-0.9 3,-2.2 0.3,-0.8 0.9,-1.3 1.5,-1.7 3.6,-2.3 0.8,-6.5 -2,-9.8 a 0.8,0.8 0 0 0 -1,-0.1 m -4,-1 a 1,1 0 0 0 -1,-0.5 c -3.3,0 -6,-0.5 -6,-1 0,-0.6 2.7,-1 6,-1 0.4,0 0.8,-0.3 1,-0.6 a 1,1 0 0 0 -0.2,-0.9 c -3.3,-2.9 -7.5,-5.6 -9.8,-2 -0.4,0.6 -1,1.2 -1.7,1.4 -1.4,0.4 -2.3,1.3 -2.3,3 0,1.8 1,2.7 2.3,3.1 0.7,0.2 1.3,0.8 1.7,1.4 2.3,3.6 6.5,0.9 9.9,-2 0.2,-0.2 0.2,-0.6 0,-0.9 m 2.6,-3.2 c -1,0 -1.7,0.7 -1.7,1.7 0,0.9 0.8,1.6 1.7,1.6 1,0 1.7,-0.7 1.7,-1.6 0,-1 -0.8,-1.7 -1.7,-1.7"
     id="path244"
     inkscape:connector-curvature="0"
     style="fill:#e6be34" />
  <path
     d="m 67,63.999992 22.4,-13 22.3,13 v 26 L 89.4,103 67,89.999992 Z m 0,0"
     id="path246"
     inkscape:connector-curvature="0"
     style="fill:#f9d6d6" />
  <path
     d="m 89.4,52.199992 21.3,12.4 v 24.7 L 89.4,101.7 68.1,89.299992 v -24.7 l 21.3,-12.4 m -23.4,11.1 v 27.1 L 89.4,104 112.8,90.399992 v -27.1 l -23.4,-13.6 z m 0,0"
     id="path248"
     inkscape:connector-curvature="0"
     style="fill:#e6be34" />
  <path
     d="m 89.4,55.799992 18.2,10.6 v 21.1 l -18.2,10.6 -18.2,-10.6 v -21.1 l 18.2,-10.6 m -19.3,10 v 22.3 l 19.3,11.200004 19.3,-11.200004 v -22.3 l -19.3,-11.2 z m 0,0"
     id="path250"
     inkscape:connector-curvature="0"
     style="fill:#e6be34" />
  <path
     d="m 87.8,74.399992 c 0.3,-0.2 0.6,-0.5 0.6,-0.9 0,-3.3 0.4,-6 1,-6 0.6,0 1,2.7 1,6 0,0.4 0.2,0.7 0.6,1 0.2,0 0.6,0 0.8,-0.2 3,-3.3 5.7,-7.5 2.1,-9.8 -0.6,-0.4 -1.2,-1 -1.4,-1.7 -0.4,-1.3 -1.4,-2.2 -3.1,-2.2 -1.8,0 -2.7,0.9 -3,2.2 -0.3,0.8 -0.9,1.3 -1.5,1.7 -3.6,2.3 -0.9,6.5 2,9.8 0.3,0.3 0.7,0.3 1,0.1 m 15.7,-0.5 c -0.7,-0.2 -1.3,-0.8 -1.7,-1.4 -2.3,-3.6 -6.5,-0.9 -9.9,2 -0.2,0.2 -0.2,0.6 0,0.9 0.1,0.3 0.5,0.5 0.8,0.5 3.4,0 6,0.5 6,1 0,0.6 -2.6,1 -6,1 a 1,1 0 0 0 -0.9,0.6 c -0.1,0.3 -0.1,0.7 0.2,0.9 3.3,2.9 7.5,5.6 9.8,2 0.4,-0.6 1,-1.2 1.7,-1.4 1.4,-0.4 2.3,-1.3 2.3,-3 0,-1.8 -1,-2.7 -2.3,-3.1 m -12.6,5.6 a 1,1 0 0 0 -0.6,0.9 c 0,3.3 -0.4,6 -1,6 -0.6,0 -1,-2.7 -1,-6 a 1,1 0 0 0 -0.6,-1 c -0.3,0 -0.6,0 -0.9,0.2 -2.9,3.3 -5.6,7.5 -2,9.8 0.6,0.4 1.2,1 1.4,1.7 0.4,1.3 1.3,2.2 3.1,2.2 1.7,0 2.7,-0.9 3,-2.2 0.3,-0.8 0.9,-1.3 1.5,-1.7 3.6,-2.3 0.8,-6.5 -2,-9.8 a 0.8,0.8 0 0 0 -1,-0.1 m -4.1,-1 a 1,1 0 0 0 -0.8,-0.5 c -3.4,0 -6,-0.5 -6,-1 0,-0.6 2.6,-1 6,-1 0.3,0 0.6,-0.3 0.8,-0.6 0.2,-0.3 0.2,-0.7 0,-0.9 -3.4,-2.9 -7.6,-5.6 -9.9,-2 -0.4,0.6 -1,1.2 -1.7,1.4 -1.4,0.4 -2.3,1.3 -2.3,3 0,1.8 1,2.7 2.3,3.1 0.7,0.2 1.3,0.8 1.7,1.4 2.3,3.6 6.5,0.9 9.9,-2 0.2,-0.2 0.2,-0.6 0,-0.9 m 2.6,-3.2 c -1,0 -1.7,0.7 -1.7,1.7 0,0.9 0.8,1.6 1.7,1.6 a 1.7,1.7 0 1 0 0,-3.3"
     id="path252"
     inkscape:connector-curvature="0"
     style="fill:#e6be34" />
  <path
     d="m 134.1,24.999992 22.3,-13 22.4,13 v 26 l -22.4,13 -22.3,-13 z m 0,0"
     id="path254"
     inkscape:connector-curvature="0"
     style="fill:#bf1927" />
  <path
     d="m 177.7,50.299992 -21.3,12.5 -21.2,-12.5 v -24.8 l 21.3,-12.4 21.3,12.4 z m -44.7,-26 v 27.3 l 23.4,13.6 22.4,-13 v -28.4 l -22.4,-13 z m 0,0"
     id="path256"
     inkscape:connector-curvature="0"
     style="fill:#e6be34" />
  <path
     d="m 156.4,16.799992 18.2,10.6 v 21.2 l -18.2,10.6 -18.2,-10.6 v -21.3 l 18.2,-10.6 m -19.2,10 v 22.4 l 19.2,11.2 19.3,-11.2 v -22.4 l -19.3,-11.2 z m 0,0"
     id="path258"
     inkscape:connector-curvature="0"
     style="fill:#e6be34" />
  <path
     d="m 154.9,35.399992 c 0.3,-0.2 0.5,-0.5 0.5,-0.8 0,-3.4 0.5,-6 1,-6 0.6,0 1,2.6 1,6 0,0.3 0.3,0.6 0.6,0.8 0.3,0.2 0.7,0.2 0.9,0 2.9,-3.4 5.6,-7.6 2,-9.8 -0.6,-0.4 -1.2,-1 -1.4,-1.7 -0.4,-1.4 -1.3,-2.3 -3,-2.3 -1.8,0 -2.8,0.9 -3.2,2.3 a 3,3 0 0 1 -1.4,1.7 c -3.5,2.2 -0.8,6.4 2.1,9.8 0.2,0.2 0.6,0.2 0.9,0 m 15.7,-0.5 c -0.7,-0.2 -1.3,-0.8 -1.7,-1.4 -2.2,-3.5 -6.5,-0.8 -9.8,2 -0.3,0.3 -0.3,0.6 -0.1,1 0.2,0.2 0.5,0.5 0.9,0.5 3.3,0 6,0.4 6,1 0,0.5 -2.7,1 -6,1 a 1,1 0 0 0 -1,0.5 c 0,0.3 0,0.7 0.2,1 3.4,2.8 7.6,5.5 9.8,2 0.4,-0.7 1,-1.2 1.7,-1.5 1.4,-0.4 2.3,-1.3 2.3,-3 0,-1.8 -0.9,-2.7 -2.3,-3 m -12.6,5.5 a 1,1 0 0 0 -0.6,0.9 c 0,3.3 -0.4,6 -1,6 -0.5,0 -1,-2.7 -1,-6 a 1,1 0 0 0 -0.5,-0.9 c -0.3,-0.2 -0.7,-0.1 -1,0.1 -2.8,3.4 -5.5,7.5 -2,9.8 a 3,3 0 0 1 1.4,1.7 c 0.4,1.4 1.4,2.2 3.1,2.2 1.8,0 2.7,-0.8 3.1,-2.2 a 3,3 0 0 1 1.5,-1.7 c 3.5,-2.3 0.8,-6.5 -2.1,-9.8 a 0.6,0.6 0 0 0 -0.9,0 m -4.1,-1.1 a 1,1 0 0 0 -0.9,-0.5 c -3.3,0 -6,-0.5 -6,-1 0,-0.6 2.7,-1 6,-1 0.4,0 0.7,-0.3 0.9,-0.6 0.2,-0.3 0.1,-0.6 -0.1,-0.9 -3.4,-2.8 -7.6,-5.5 -9.9,-2 -0.4,0.6 -1,1.2 -1.7,1.4 -1.4,0.4 -2.2,1.3 -2.2,3 0,1.8 0.8,2.7 2.2,3.1 0.8,0.3 1.3,0.8 1.7,1.5 2.3,3.5 6.5,0.8 9.9,-2.1 0.2,-0.2 0.2,-0.6 0,-0.9 m 2.6,-3.2 c -0.9,0 -1.6,0.8 -1.6,1.7 0,0.9 0.7,1.6 1.6,1.6 1,0 1.7,-0.7 1.7,-1.6 0,-1 -0.7,-1.7 -1.7,-1.7 m 21.3,15.3 1,0.6 v -28.4 l -1,0.6 z m -176.7,-27.3 -1,-0.5 v 28.4 l 1,-0.6 z m 0,0"
     id="path260"
     inkscape:connector-curvature="0"
     style="fill:#e6be34" />
  <path
     d="m 0,24.999992 22.4,-13 22.3,13 v 26 l -22.3,13 -22.4,-13 z m 0,0"
     id="path262"
     inkscape:connector-curvature="0"
     style="fill:#221815" />
  <path
     d="m 1,25.599992 21.4,-12.4 21.3,12.4 v 24.7 l -21.3,12.4 -21.4,-12.4 z m 44.7,26 v -27.3 l -23.3,-13.6 -22.4,13 v 28.4 l 22.4,13 z m 0,0"
     id="path264"
     inkscape:connector-curvature="0"
     style="fill:#e6be34" />
  <path
     d="m 22.4,16.799992 18.2,10.6 v 21.2 l -18.2,10.6 -18.3,-10.6 v -21.3 l 18.3,-10.6 m -19.3,10 v 22.4 l 19.3,11.2 19.2,-11.2 v -22.4 l -19.2,-11.2 z m 0,0"
     id="path266"
     inkscape:connector-curvature="0"
     style="fill:#e6be34" />
  <path
     d="m 20.8,35.399992 c 0.3,-0.2 0.5,-0.5 0.5,-0.8 0,-3.4 0.5,-6 1,-6 0.6,0 1,2.6 1,6 0,0.3 0.3,0.6 0.6,0.8 0.3,0.2 0.7,0.2 0.9,0 3,-3.4 5.6,-7.6 2,-9.8 a 4,4 0 0 1 -1.4,-1.7 c -0.4,-1.4 -1.3,-2.3 -3,-2.3 -1.8,0 -2.7,0.9 -3.1,2.3 -0.3,0.7 -0.8,1.3 -1.5,1.7 -3.5,2.2 -0.8,6.4 2.1,9.8 0.2,0.2 0.6,0.2 0.9,0 m 15.8,-0.5 c -0.8,-0.2 -1.3,-0.8 -1.8,-1.4 -2.2,-3.5 -6.4,-0.8 -9.8,2 -0.3,0.3 -0.3,0.6 0,1 0.1,0.2 0.4,0.5 0.8,0.5 3.3,0 6,0.4 6,1 0,0.5 -2.7,1 -6,1 a 1,1 0 0 0 -0.9,0.5 c -0.2,0.3 -0.1,0.7 0.1,1 3.4,2.8 7.6,5.5 9.8,2 0.5,-0.7 1,-1.2 1.8,-1.5 1.3,-0.4 2.2,-1.3 2.2,-3 0,-1.8 -0.9,-2.7 -2.2,-3 m -12.7,5.5 a 1,1 0 0 0 -0.5,0.9 c 0,3.3 -0.5,6 -1,6 -0.6,0 -1,-2.7 -1,-6 a 1,1 0 0 0 -0.6,-0.9 c -0.3,-0.2 -0.7,-0.1 -0.9,0.1 -2.9,3.4 -5.6,7.5 -2,9.8 a 4,4 0 0 1 1.4,1.7 c 0.4,1.4 1.3,2.2 3,2.2 1.8,0 2.7,-0.8 3.1,-2.2 0.3,-0.7 0.8,-1.3 1.5,-1.7 3.5,-2.3 0.8,-6.5 -2.1,-9.8 a 0.6,0.6 0 0 0 -0.9,0 m -4.1,-1.1 a 1,1 0 0 0 -0.9,-0.5 c -3.3,0 -6,-0.5 -6,-1 0,-0.6 2.7,-1 6,-1 0.4,0 0.7,-0.3 0.9,-0.6 0.2,-0.3 0.2,-0.6 -0.1,-0.9 -3.4,-2.8 -7.6,-5.5 -9.8,-2 -0.4,0.6 -1,1.2 -1.8,1.4 -1.3,0.4 -2.2,1.3 -2.2,3 0,1.8 0.9,2.7 2.2,3.1 0.8,0.3 1.3,0.8 1.8,1.5 2.2,3.5 6.4,0.8 9.8,-2.1 0.3,-0.2 0.3,-0.6 0,-0.9 m 2.7,-3.2 c -1,0 -1.7,0.8 -1.7,1.7 a 1.7,1.7 0 0 0 3.3,0 c 0,-1 -0.7,-1.7 -1.6,-1.7"
     id="path268"
     inkscape:connector-curvature="0"
     style="fill:#e6be34" />
  <path
     d="m 44.7,24.999992 22.3,-13 22.4,13 v 26 l -22.4,13 -22.3,-13 z m 0,0"
     id="path270"
     inkscape:connector-curvature="0"
     style="fill:#366f8a" />
  <path
     d="m 67,13.199992 21.4,12.4 v 24.7 l -21.4,12.4 -21.3,-12.4 v -24.8 l 21.3,-12.4 m -23.3,11.2 v 27.2 l 23.3,13.6 23.4,-13.6 v -27.2 l -23.4,-13.6 z m 0,0"
     id="path272"
     inkscape:connector-curvature="0"
     style="fill:#e6be34" />
  <path
     d="m 67,16.799992 18.3,10.6 v 21.2 l -18.3,10.6 -18.2,-10.6 v -21.3 l 18.2,-10.6 m -19.2,10 v 22.4 l 19.2,11.2 19.3,-11.2 v -22.4 l -19.3,-11.2 z m 0,0"
     id="path274"
     inkscape:connector-curvature="0"
     style="fill:#e6be34" />
  <path
     d="m 65.5,35.399992 c 0.3,-0.2 0.5,-0.5 0.5,-0.8 0,-3.4 0.5,-6 1,-6 0.6,0 1,2.6 1,6 0,0.3 0.3,0.6 0.6,0.8 0.3,0.2 0.7,0.2 0.9,0 2.9,-3.4 5.6,-7.6 2,-9.8 a 4,4 0 0 1 -1.4,-1.7 c -0.4,-1.4 -1.3,-2.3 -3,-2.3 -1.8,0 -2.7,0.9 -3.1,2.3 -0.3,0.7 -0.8,1.3 -1.5,1.7 -3.5,2.2 -0.8,6.4 2.1,9.8 0.2,0.2 0.6,0.2 0.9,0 m 15.7,-0.5 c -0.7,-0.2 -1.2,-0.8 -1.7,-1.4 -2.2,-3.5 -6.4,-0.8 -9.8,2 -0.3,0.3 -0.3,0.6 0,1 0,0.2 0.4,0.5 0.8,0.5 3.3,0 6,0.4 6,1 0,0.5 -2.7,1 -6,1 a 1,1 0 0 0 -0.9,0.5 c -0.2,0.3 -0.1,0.7 0.1,1 3.4,2.8 7.6,5.5 9.8,2 0.5,-0.7 1,-1.2 1.8,-1.5 1.3,-0.4 2.2,-1.3 2.2,-3 0,-1.8 -0.9,-2.7 -2.2,-3 m -12.7,5.5 a 1,1 0 0 0 -0.5,0.9 c 0,3.3 -0.5,6 -1,6 -0.6,0 -1,-2.7 -1,-6 a 1,1 0 0 0 -0.6,-0.9 c -0.3,-0.2 -0.7,-0.1 -0.9,0.1 -3,3.4 -5.6,7.5 -2,9.8 a 4,4 0 0 1 1.4,1.7 c 0.4,1.4 1.3,2.2 3,2.2 1.8,0 2.7,-0.8 3.1,-2.2 0.3,-0.7 0.8,-1.3 1.5,-1.7 3.5,-2.3 0.8,-6.5 -2.1,-9.8 a 0.6,0.6 0 0 0 -0.9,0 m -4.1,-1.1 a 1,1 0 0 0 -0.9,-0.5 c -3.3,0 -6,-0.5 -6,-1 0,-0.6 2.7,-1 6,-1 0.4,0 0.7,-0.3 0.9,-0.6 0.2,-0.3 0.1,-0.6 -0.1,-0.9 -3.4,-2.8 -7.6,-5.5 -9.8,-2 -0.5,0.6 -1,1.2 -1.8,1.4 -1.3,0.4 -2.2,1.3 -2.2,3 0,1.8 0.9,2.7 2.2,3.1 0.8,0.3 1.3,0.8 1.8,1.5 2.2,3.5 6.4,0.8 9.8,-2.1 0.3,-0.2 0.3,-0.6 0,-0.9 m 2.6,-3.2 c -0.9,0 -1.6,0.8 -1.6,1.7 0,0.9 0.7,1.6 1.6,1.6 1,0 1.7,-0.7 1.7,-1.6 0,-1 -0.7,-1.7 -1.7,-1.7"
     id="path276"
     inkscape:connector-curvature="0"
     style="fill:#e6be34" />
  <path
     d="m 89.4,24.999992 22.3,-13 22.4,13 v 26 l -22.4,13 -22.3,-13 z m 0,0"
     id="path278"
     inkscape:connector-curvature="0"
     style="fill:#f9d6d6" />
  <path
     d="m 111.7,13.199992 21.3,12.4 v 24.7 l -21.3,12.4 -21.3,-12.4 v -24.8 l 21.3,-12.4 m -23.3,11.2 v 27.2 l 23.3,13.6 23.4,-13.6 v -27.2 l -23.4,-13.6 z m 0,0"
     id="path280"
     inkscape:connector-curvature="0"
     style="fill:#e6be34" />
  <path
     d="m 111.7,16.799992 18.3,10.6 v 21.2 l -18.3,10.6 -18.2,-10.6 v -21.3 l 18.2,-10.6 m -19.2,10 v 22.4 l 19.2,11.2 19.3,-11.2 v -22.4 l -19.3,-11.2 z m 0,0"
     id="path282"
     inkscape:connector-curvature="0"
     style="fill:#e6be34" />
  <path
     d="m 110.2,35.399992 c 0.3,-0.2 0.5,-0.5 0.5,-0.8 0,-3.4 0.5,-6 1,-6 0.6,0 1,2.6 1,6 0,0.3 0.3,0.6 0.6,0.8 0.3,0.2 0.7,0.2 0.9,0 2.9,-3.4 5.6,-7.6 2,-9.8 -0.6,-0.4 -1.2,-1 -1.4,-1.7 -0.4,-1.4 -1.3,-2.3 -3,-2.3 -1.8,0 -2.7,0.9 -3.1,2.3 -0.3,0.7 -0.8,1.3 -1.5,1.7 -3.5,2.2 -0.8,6.4 2.1,9.8 0.2,0.2 0.6,0.2 0.9,0 m 15.8,-0.5 c -0.8,-0.2 -1.4,-0.8 -1.8,-1.4 -2.2,-3.5 -6.4,-0.8 -9.8,2 -0.3,0.3 -0.3,0.6 -0.1,1 0.2,0.2 0.5,0.5 0.9,0.5 3.3,0 6,0.4 6,1 0,0.5 -2.7,1 -6,1 a 1,1 0 0 0 -0.9,0.5 c -0.2,0.3 -0.2,0.7 0.1,1 3.4,2.8 7.6,5.5 9.8,2 0.4,-0.7 1,-1.2 1.8,-1.5 1.3,-0.4 2.2,-1.3 2.2,-3 0,-1.8 -0.9,-2.7 -2.3,-3 m -12.6,5.5 a 1,1 0 0 0 -0.5,0.9 c 0,3.3 -0.5,6 -1,6 -0.6,0 -1,-2.7 -1,-6 a 1,1 0 0 0 -0.6,-0.9 c -0.3,-0.2 -0.7,-0.1 -1,0.1 -2.8,3.4 -5.5,7.5 -2,9.8 0.7,0.4 1.2,1 1.5,1.7 0.4,1.4 1.3,2.2 3,2.2 1.8,0 2.7,-0.8 3.1,-2.2 a 3,3 0 0 1 1.5,-1.7 c 3.5,-2.3 0.8,-6.5 -2.1,-9.8 a 0.6,0.6 0 0 0 -0.9,0 m -4.1,-1.1 a 1,1 0 0 0 -0.9,-0.5 c -3.3,0 -6,-0.5 -6,-1 0,-0.6 2.7,-1 6,-1 0.4,0 0.7,-0.3 0.9,-0.6 0.2,-0.3 0.1,-0.6 -0.1,-0.9 -3.4,-2.8 -7.6,-5.5 -9.9,-2 -0.4,0.6 -1,1.2 -1.7,1.4 -1.3,0.4 -2.2,1.3 -2.2,3 0,1.8 0.9,2.7 2.2,3.1 0.8,0.3 1.3,0.8 1.7,1.5 2.3,3.5 6.5,0.8 9.9,-2.1 0.2,-0.2 0.3,-0.6 0,-0.9 m 2.6,-3.2 c -0.9,0 -1.6,0.8 -1.6,1.7 0,0.9 0.7,1.6 1.6,1.6 1,0 1.7,-0.7 1.7,-1.6 0,-1 -0.7,-1.7 -1.7,-1.7"
     id="path284"
     inkscape:connector-curvature="0"
     style="fill:#e6be34" />
  <path
     d="M 156.4,-1.0000078 V 11.999992 l 22.4,13 V -1.0000078 Z m 0,0"
     id="path286"
     inkscape:connector-curvature="0"
     style="fill:#bf1927" />
  <path
     d="M 157.5,11.299992 V -1.0000078 h -2.1 V 12.599992 l 23.4,13.6 v -2.4 l -21.3,-12.5"
     id="path288"
     inkscape:connector-curvature="0"
     style="fill:#e6be34" />
  <path
     d="M 160.6,9.5999921 V -1.0000078 h -1 V 10.199992 l 19.2,11.2 v -1.2 L 160.6,9.5999921 m 17.2,-7.1999999 a 1,1 0 0 0 -0.6,-0.9 1,1 0 0 0 -0.9,0.1 c -2.9,3.4 -5.6,7.5999999 -2,9.7999998 0.6,0.4 1.2,1 1.4,1.7 0.4,1.4 1.3,2.3 3,2.3 V 8.3999922 c -0.5,0 -1,-2.7 -1,-6 m -13.1,-0.3 c 0.7,0.2 1.3,0.8 1.7,1.4 2.2,3.5 6.5,0.8 9.8,-2 0.3,-0.3 0.3,-0.7 0.1,-1 A 1,1 0 0 0 175.3,-7.7964844e-6 c -3.3,0 -6,-0.4000000035156 -6,-1.0000000035156 h -7 c 0,1.7 0.9,2.7 2.3,3 m 14.2,-1.3 v -1.7 h -1.7 c 0,1.0000000035156 0.8,1.7 1.7,1.7"
     id="path290"
     inkscape:connector-curvature="0"
     style="fill:#e6be34" />
  <path
     d="M 22.4,-1.0000078 H 0 V 24.999992 l 22.4,-13 z m 0,0"
     id="path292"
     inkscape:connector-curvature="0"
     style="fill:#bf1927" />
  <path
     d="m 23.4,-1.0000078 h -2 V 11.399992 l -21.4,12.4 v 2.4 l 23.4,-13.6 z m 0,0"
     id="path294"
     inkscape:connector-curvature="0"
     style="fill:#e6be34" />
  <path
     d="m 19.2,-1.0000078 h -1 V 9.5999921 L 0,20.199992 v 1.2 l 19.3,-11.2 z M 3.4,-7.7964844e-6 A 1,1 0 0 0 2.6,0.5999922 c -0.2,0.2 -0.2,0.6 0,0.8 3.4,3 7.7,5.6 9.9,2.1 0.4,-0.6 1,-1.2 1.7,-1.4 1.4,-0.4 2.3,-1.4 2.3,-3.1 h -7 c 0,0.6 -2.7,1.0000000035156 -6,1.0000000035156 M 3.1,13.099992 c 0.2,-0.7 0.8,-1.3 1.4,-1.7 3.6,-2.1999999 0.9,-6.3999998 -2,-9.7999998 -0.3,-0.2 -0.6,-0.2 -1,0 a 1,1 0 0 0 -0.5,0.8 c 0,3.3 -0.4,6 -1,6 v 6.9999998 c 1.8,0 2.7,-1 3,-2.3 M 1.7,-1.0000078 H 0 v 1.7 c 1,0 1.7,-0.8 1.7,-1.7"
     id="path296"
     inkscape:connector-curvature="0"
     style="fill:#e6be34" />
  <path
     d="m 44.7,24.999992 22.3,-13 V -1.0000078 H 22.4 V 11.999992 Z m 0,0"
     id="path298"
     inkscape:connector-curvature="0"
     style="fill:#221815" />
  <path
     d="m 44.7,26.199992 23.4,-13.6 V -1.0000078 h -2 V 11.399992 l -21.4,12.4 -21.3,-12.4 V -1.0000078 h -2 V 12.599992 Z m 0,0"
     id="path300"
     inkscape:connector-curvature="0"
     style="fill:#e6be34" />
  <path
     d="m 44.7,21.299992 19.3,-11.1 V -1.0000078 H 63 V 9.5999921 L 44.7,20.199992 26.5,9.5999921 V -1.0000078 h -1 V 10.199992 Z m 0,0"
     id="path302"
     inkscape:connector-curvature="0"
     style="fill:#e6be34" />
  <path
     d="M 48.2,-7.7964844e-6 A 1,1 0 0 0 47.2,0.5999922 c -0.1,0.2 0,0.6 0.2,0.8 3.3,3 7.5,5.6 9.8,2.1 0.4,-0.6 1,-1.2 1.7,-1.4 1.4,-0.4 2.3,-1.4 2.3,-3.1 h -7 c 0,0.6 -2.7,1.0000000035156 -6,1.0000000035156 M 46.2,1.4999922 a 1,1 0 0 0 -0.5,1 c 0,3.2 -0.4,5.9 -1,5.9 -0.6,0 -1,-2.7 -1,-6 a 1,1 0 0 0 -0.6,-0.9 c -0.2,-0.1 -0.6,-0.1 -0.8,0.1 -3,3.4 -5.7,7.5999999 -2.1,9.7999998 0.6,0.4 1.2,1 1.4,1.7 0.4,1.4 1.3,2.3 3.1,2.3 1.8,0 2.7,-1 3,-2.3 0.3,-0.7 0.9,-1.3 1.5,-1.7 3.6,-2.1999999 0.8,-6.3999998 -2,-9.7999998 a 1,1 0 0 0 -1,0 m -15.7,0.5 c 0.7,0.2 1.3,0.8 1.7,1.4 2.3,3.5 6.5,0.8 9.9,-2 a 1,1 0 0 0 0,-1 A 1,1 0 0 0 41.3,-7.7964844e-6 c -3.4,0 -6,-0.4000000035156 -6,-1.0000000035156 h -7 c 0,1.7 0.8,2.7 2.2,3 m 14.2,-1.3 c 1,0 1.7,-0.8 1.7,-1.7 H 43 c 0,1.0000000035156 0.8,1.7 1.7,1.7"
     id="path304"
     inkscape:connector-curvature="0"
     style="fill:#e6be34" />
  <path
     d="m 89.4,24.999992 22.3,-13 V -1.0000078 H 67 V 11.999992 Z m 0,0"
     id="path306"
     inkscape:connector-curvature="0"
     style="fill:#366f8a" />
  <path
     d="m 89.4,26.199992 23.4,-13.6 V -1.0000078 h -2.1 V 11.399992 l -21.3,12.4 -21.3,-12.4 V -1.0000078 h -2 V 12.599992 Z m 0,0"
     id="path308"
     inkscape:connector-curvature="0"
     style="fill:#e6be34" />
  <path
     d="m 89.4,21.299992 19.2,-11.1 V -1.0000078 h -1 V 9.5999921 L 89.4,20.199992 71.2,9.5999921 V -1.0000078 h -1 V 10.199992 Z m 0,0"
     id="path310"
     inkscape:connector-curvature="0"
     style="fill:#e6be34" />
  <path
     d="M 92.8,-7.7964844e-6 A 1,1 0 0 0 91.9,0.5999922 c -0.1,0.2 -0.1,0.6 0.2,0.8 3.3,3 7.5,5.6 9.8,2.1 0.4,-0.6 1,-1.2 1.7,-1.4 1.4,-0.4 2.3,-1.4 2.3,-3.1 h -7 c 0,0.6 -2.7,1.0000000035156 -6,1.0000000035156 M 91,1.4999922 a 1,1 0 0 0 -0.6,1 c 0,3.2 -0.4,5.9 -1,5.9 -0.6,0 -1,-2.7 -1,-6 a 1,1 0 0 0 -0.6,-0.9 1,1 0 0 0 -0.9,0.1 c -2.9,3.4 -5.6,7.5999999 -2,9.7999998 0.6,0.4 1.2,1 1.4,1.7 0.4,1.4 1.3,2.3 3.1,2.3 1.7,0 2.7,-1 3,-2.3 0.3,-0.7 0.9,-1.3 1.5,-1.7 3.6,-2.1999999 0.8,-6.3999998 -2,-9.7999998 a 1,1 0 0 0 -1,0 m -15.7,0.5 c 0.7,0.2 1.3,0.8 1.7,1.4 2.3,3.5 6.5,0.8 9.9,-2 a 1,1 0 0 0 0,-1 A 1,1 0 0 0 86,-7.7964844e-6 c -3.4,0 -6,-0.4000000035156 -6,-1.0000000035156 h -7 c 0,1.7 0.8,2.7 2.2,3 m 14.2,-1.3 c 1,0 1.7,-0.8 1.7,-1.7 h -3.4 c 0,1.0000000035156 0.8,1.7 1.7,1.7"
     id="path312"
     inkscape:connector-curvature="0"
     style="fill:#e6be34" />
  <path
     d="m 134.1,24.999992 22.3,-13 V -1.0000078 H 111.7 V 11.999992 Z m 0,0"
     id="path314"
     inkscape:connector-curvature="0"
     style="fill:#f9d6d6" />
  <path
     d="m 134.1,26.199992 23.4,-13.6 V -1.0000078 h -2.1 V 11.399992 l -21.3,12.4 -21.3,-12.4 V -1.0000078 h -2.1 V 12.599992 Z m 0,0"
     id="path316"
     inkscape:connector-curvature="0"
     style="fill:#e6be34" />
  <path
     d="m 134.1,21.299992 19.1,-11 V -0.9000078 h -1 V 9.6999921 L 134.2,20.199992 116,9.5999921 V -1.0000078 h -1 V 10.199992 Z m 0,0"
     id="path318"
     inkscape:connector-curvature="0"
     style="fill:#e6be34" />
  <path
     d="M 137.5,-7.7964844e-6 A 1,1 0 0 0 136.6,0.5999922 c -0.1,0.2 -0.1,0.6 0.1,0.8 3.4,3 7.6,5.6 9.9,2.1 0.4,-0.6 1,-1.2 1.7,-1.4 1.4,-0.4 2.3,-1.4 2.3,-3.1 h -7 c 0,0.6 -2.7,1.0000000035156 -6,1.0000000035156 M 135.6,1.4999922 a 1,1 0 0 0 -0.5,1 c 0,3.2 -0.5,5.9 -1,5.9 -0.6,0 -1,-2.7 -1,-6 a 1,1 0 0 0 -0.6,-0.9 1,1 0 0 0 -0.9,0.1 c -2.9,3.4 -5.6,7.5999999 -2,9.7999998 0.6,0.4 1.2,1 1.4,1.7 0.4,1.4 1.3,2.3 3,2.3 1.8,0 2.8,-1 3.2,-2.3 0.2,-0.7 0.8,-1.3 1.4,-1.7 3.6,-2.1999999 0.8,-6.3999998 -2,-9.7999998 a 1,1 0 0 0 -1,0 m -15.7,0.5 c 0.7,0.2 1.3,0.8 1.7,1.4 2.2,3.5 6.5,0.8 9.8,-2 0.3,-0.3 0.3,-0.7 0.1,-1 A 1,1 0 0 0 130.6,-7.7964844e-6 c -3.3,0 -6,-0.4000000035156 -6,-1.0000000035156 h -7 c 0,1.7 0.9,2.7 2.3,3 m 14.2,-1.3 c 1,0 1.7,-0.8 1.7,-1.7 h -3.4 c 0,1.0000000035156 0.8,1.7 1.7,1.7"
     id="path320"
     inkscape:connector-curvature="0"
     style="fill:#e6be34" />
</svg>
