<svg xmlns="http://www.w3.org/2000/svg" viewBox="0 0 590.3 656.2"><defs><clipPath id="a"><path d="M0 90.5h595.3v661.2H0zm0 0"/></clipPath></defs><g clip-path="url(#a)" transform="translate(0 -90.5)"><path d="M578.6 208.2l7.7 27.9-45-75 38.1-63.7 13.5 28.8v108.2l-7.8-28a3.4 3.4 0 0 0-6.5 1.8zM592.9 385l-13.5 28.8-38.1-63.6 45-75-7.7 27.7a3.3 3.3 0 0 0 3.3 4.3c1.4 0 2.8-1 3.2-2.5l7.8-28zm-14.3 154l7.7 27.8-45-75 38.1-63.7L593 457v108.2l-7.8-28a3.4 3.4 0 0 0-4.1-2.3 3.3 3.3 0 0 0-2.4 4.1zM480 653l97.2-54-21 20.2a3.3 3.3 0 0 0 0 4.7 3.4 3.4 0 0 0 4.8.1l21-20.3-44.8 74.8h-76.3zm-70.2 96.3h-89.6l28.4-7.3c1.8-.5 3-2.3 2.5-4.1a3.4 3.4 0 0 0-4.2-2.4l-28.6 7.3 97-53.8 32.6-3.2zm-262.4-63.5L180 689l97 53.8-28.6-7.3c-1.9-.5-3.7.6-4.2 2.4-.5 1.8.6 3.6 2.5 4l28.4 7.4h-89.6zm-89.3-7.3l-45-74.9L34.4 624a3.4 3.4 0 0 0 4.8 0 3.3 3.3 0 0 0 0-4.8L18 599l97.2 54 19 25.5zm-55.7-71l7.7 27.9a3.4 3.4 0 0 0 4.2 2.3 3.3 3.3 0 0 0 2.4-4L9 605.7l45 75-38.2 63.6-13.4-28.7zm0-150.6L15.8 428 54 491.7l-45 75 7.7-27.8c.5-1.7-.6-3.6-2.4-4-1.8-.6-3.7.5-4.1 2.3L2.4 565zM15.9 97.4l38 63.6-45 75 7.8-27.8c.5-1.7-.5-3.6-2.4-4-1.8-.6-3.6.5-4.1 2.3l-7.8 28V126.1zm99.4 91.4l-97.2 54 21-20.1a3.3 3.3 0 0 0 0-4.8 3.4 3.4 0 0 0-4.8 0l-21.1 20.3L58 163.4h76.3zm70.2-96.2H275l-28.4 7.3a3.3 3.3 0 1 0 1.7 6.5L277 99 180 153l-32.6 3.1zM447.9 156l-32.6-3.1-97-53.9 28.6 7.4.9.1a3.3 3.3 0 0 0 .9-6.6l-28.5-7.3h89.6zm89.3 191.8h-76.3l19-25.5 97.3-54-21 20.2a3.3 3.3 0 0 0 0 4.7c.6.7 1.5 1 2.4 1 .8 0 1.7-.3 2.4-.9L582 273zM536 487.4h-79.9l-39.8-66.5 39.8-66.4H536l39.8 66.4zm20.2 66l21 20.1-97.2-54-19-25.4h76.2l44.9 74.8-21.1-20.3a3.4 3.4 0 0 0-4.8 0 3.3 3.3 0 0 0 0 4.8zm24.8 84.4a3.4 3.4 0 0 0 4.1-2.4l7.8-28v108.3l-13.5 28.7-38.1-63.5 45-75-7.7 27.7c-.5 1.8.5 3.7 2.4 4.2zm-140.4 21.4l28.3-2.7-16.5 22.2-28.4 2.7zm-285.9 0l16.6 22.2-28.4-2.7-16.6-22.2zM58.1 494.2h76.3l-19.1 25.4-97.2 54 21-20.1a3.3 3.3 0 0 0 0-4.8 3.4 3.4 0 0 0-4.8 0l-21.1 20.3zm1.2-139.6H139L179 421l-39.9 66.5H59.3l-39.9-66.5zM16.7 303L9 275.1l45 75-38.2 63.6L2.4 385V276.8l7.8 28a3.4 3.4 0 0 0 4.1 2.2 3.3 3.3 0 0 0 2.4-4zm138-120.3l-28.4 2.8 16.6-22.2 28.4-2.8zm285.9 0L424 160.5l28.4 2.7 16.5 22.2zm-30.8 236H320l28.5-7.3a3.3 3.3 0 0 0 2.5-4.1 3.4 3.4 0 0 0-4.2-2.4l-28.6 7.4 97-54 32.6-3zm5.5 65l-97-53.9 28.6 7.4.9.1c1.5 0 2.9-1 3.3-2.5.4-1.8-.7-3.6-2.5-4l-28.4-7.4h89.6l38 63.4zM312 700.2c-1.8-.5-3.7.5-4.2 2.3l-7.8 28V622.3l13.5-28.8 38.1 63.5-45 75 7.7-27.7c.5-1.8-.5-3.6-2.3-4.1zm-30.2-106.7l13.5 28.8v108.1l-7.8-27.9a3.4 3.4 0 0 0-4.2-2.3 3.3 3.3 0 0 0-2.4 4l7.8 28-45-75.2zm-96.3-170.2h89.6l-28.4 7.3a3.3 3.3 0 0 0 .8 6.6l.9-.1 28.6-7.4-97 53.9-32.6 3.1zm-5.5-65l97 53.8-28.6-7.3c-1.8-.5-3.7.6-4.2 2.4-.4 1.8.7 3.6 2.5 4l28.4 7.4h-89.6l-38-63.5zm103.3-216.6l1 .1c1.4 0 2.8-1 3.2-2.4l7.8-28v108.3l-13.5 28.7-38.1-63.6 45-75-7.8 27.8c-.5 1.8.6 3.6 2.4 4.1zm30.2 106.7L300 219.7V111.4l7.8 28a3.4 3.4 0 0 0 4.2 2.3 3.3 3.3 0 0 0 2.3-4.1l-7.7-27.8 45 75zm-13.5 302V442l7.8 28a3.4 3.4 0 0 0 4.2 2.3 3.3 3.3 0 0 0 2.3-4.1l-7.7-27.8 45 75-38.1 63.6zm-11.3-109.9l-7.8 27.8a3.4 3.4 0 0 0 3.3 4.2c1.5 0 2.9-1 3.3-2.4l7.8-28v108.2l-13.5 28.8-38.1-63.6zm6.6-149v108.3l-7.8-28a3.4 3.4 0 0 0-4.2-2.3 3.4 3.4 0 0 0-2.4 4l7.8 27.9-45-75 38-63.6zm16.7 78c-1.8-.5-3.7.5-4.2 2.3l-7.8 28V291.5l13.5-28.7 38.1 63.6-45 75 7.7-27.8c.6-1.8-.5-3.6-2.3-4.1zm-14.4-139l11.8 25.1-11.8 25-11.7-25zM182.3 354.2l-19-25.5h76.3l44.9 74.9-21.2-20.4a3.4 3.4 0 0 0-4.8 0 3.3 3.3 0 0 0 0 4.8l21 20.2zm0 133.5l97.2-54-21 20.2a3.3 3.3 0 0 0 0 4.7c.7.7 1.6 1 2.5 1 .8 0 1.7-.3 2.3-1l21.2-20.3-45 74.9h-76.2zm115.3 123.6l-11.7-25 11.7-25 11.8 25zM413 487.7l19 25.5h-76.3l-44.9-74.9 21.2 20.3a3.4 3.4 0 0 0 4.8 0 3.3 3.3 0 0 0-.1-4.7l-21-20.2zm0-133.5l-97.3 54 21-20.2a3.3 3.3 0 0 0 0-4.7 3.5 3.5 0 0 0-4.7 0l-21.2 20.3 45-74.9H432zm23.8-165l39.8 66.4-39.8 66.4h-79.9l-39.8-66.4 39.8-66.4zm-198.4 0l39.8 66.4-39.8 66.4h-79.9l-39.9-66.4 39.9-66.4zm-126.2 68.7l38 63.5-32.6-3.2-97-53.8 28.7 7.3.8.1c1.5 0 3-1 3.3-2.4.5-1.8-.6-3.7-2.4-4.1l-28.4-7.4zM58 348l-45-75 21.2 20.4a3.4 3.4 0 0 0 4.8 0 3.3 3.3 0 0 0 0-4.8l-21-20.1 97.2 54 19 25.4zm68.2-22.1l28.4 2.8 16.6 22.1L143 348zm16.6 168l28.4-2.7-16.6 22.2-28.4 2.8zM112.1 584H22.5l28.5-7.3a3.4 3.4 0 0 0 2.4-4 3.4 3.4 0 0 0-4.1-2.5l-28.6 7.4 97-53.9 32.5-3.1zm46.4 68.8l-39.9-66.4 39.9-66.4h79.9l39.8 66.4-39.8 66.4zm198.4 0l-39.8-66.4 39.8-66.4h79.9l39.8 66.4-39.8 66.4zm120.7-129l97 53.8-28.6-7.4c-1.8-.4-3.7.6-4.1 2.4-.5 1.8.6 3.6 2.4 4.1l28.5 7.3H483l-38-63.4zM469 516l-28.3-2.8-16.6-22.1 28.4 2.7zM452.4 348l-28.4 2.7 16.6-22.2 28.3-2.7zm25.3-29.8l-32.6 3.2 38-63.5h89.7l-28.5 7.4a3.4 3.4 0 0 0-2.4 4 3.4 3.4 0 0 0 4.1 2.5l28.6-7.4zm0-125.2l97 53.8-28.7-7.4c-1.8-.4-3.7.6-4.1 2.4-.5 1.8.6 3.6 2.4 4.1l28.5 7.3H483l-38-63.4zM413 157l19 25.5h-76.3l-44.9-75L332 128a3.5 3.5 0 0 0 4.8 0 3.3 3.3 0 0 0-.1-4.7l-21-20.2zm-230.7 0l97.2-54-21 20.2a3.3 3.3 0 0 0 0 4.7 3.4 3.4 0 0 0 4.8 0l21.2-20.3-45 74.9h-76.2zm-64.7 36l32.6-3.2-38 63.4H22.5L51 246c1.8-.5 2.9-2.3 2.4-4a3.4 3.4 0 0 0-4.1-2.5l-28.6 7.4zm0 456l-97-54 28.7 7.4a3.4 3.4 0 0 0 4.1-2.3c.5-1.8-.6-3.7-2.4-4.1l-28.4-7.4h89.6l38 63.5zm64.7 35.9l-19-25.5h76.2l45 74.9-21.2-20.4a3.4 3.4 0 0 0-4.8 0 3.3 3.3 0 0 0 0 4.8l21 20.2zm230.6 0l-97.1 54 20.9-20.2a3.3 3.3 0 0 0 0-4.7 3.4 3.4 0 0 0-4.8 0l-21.1 20.3 45-74.9H432zm64.8-36l-32.6 3.2 38-63.5h89.7l-28.5 7.4c-1.8.4-3 2.3-2.4 4a3.4 3.4 0 0 0 4.1 2.5l28.6-7.4zm59.5-485.5l44.9 74.8L561 218a3.4 3.4 0 0 0-4.8 0 3.3 3.3 0 0 0 0 4.8l21 20.1-97.2-54-19-25.4zm58-48.1l-11.7-25H576L536 156.6h-79.9l-39.8-66.5H179l-39.9 66.5H59.3L19.4 90.2h-7.7L0 115.4v280.6l11.7 25L0 446v280.7l11.7 25h7.7l39.9-66.4H139l39.9 66.4h237.3l39.8-66.4H536l39.8 66.4h7.7l11.8-25V446l-11.8-25 11.8-25.1V115.3" fill="#fc9"/></g></svg>